<svg width="24" height="24" viewBox="0 0 24 24" fill="none" xmlns="http://www.w3.org/2000/svg">
<path d="M6.44801 7.96942C6.76236 5.14032 9.15366 3 12.0002 3C14.8467 3 17.238 5.14032 17.5524 7.96942L17.8042 10.2356C17.8074 10.2645 17.809 10.279 17.8106 10.2933C17.9396 11.4169 18.3053 12.5005 18.8838 13.4725C18.8911 13.4849 18.8986 13.4973 18.9135 13.5222L19.4916 14.4856C20.0161 15.3599 20.2784 15.797 20.2218 16.1559C20.1841 16.3946 20.0612 16.6117 19.8759 16.7668C19.5973 17 19.0875 17 18.068 17H5.9324C4.91285 17 4.40308 17 4.12451 16.7668C3.93914 16.6117 3.81626 16.3946 3.77858 16.1559C3.72196 15.797 3.98424 15.3599 4.50879 14.4856L5.08682 13.5222C5.10178 13.4973 5.10926 13.4849 5.11661 13.4725C5.69505 12.5005 6.06081 11.4169 6.18976 10.2933C6.1914 10.279 6.193 10.2645 6.19621 10.2356L6.44801 7.96942Z" stroke="#4E4D4C" stroke-width="2"/>
<path d="M9.10205 17.6647C9.27298 18.6215 9.64961 19.467 10.1735 20.0701C10.6974 20.6731 11.3394 21 11.9998 21C12.6602 21 13.3022 20.6731 13.8261 20.0701C14.35 19.467 14.7267 18.6215 14.8976 17.6647" stroke="#4E4D4C" stroke-width="2" stroke-linecap="round"/>
</svg>
