<svg width="24" height="24" viewBox="0 0 24 24" fill="none" xmlns="http://www.w3.org/2000/svg">
<path d="M3.08163 13.9445C2.55293 12.9941 2.28857 12.5188 2.28857 12C2.28857 11.4812 2.55293 11.0059 3.08164 10.0555L4.43089 7.63L5.8568 5.24876C6.41555 4.31567 6.69493 3.84912 7.14426 3.5897C7.59359 3.33028 8.13732 3.3216 9.22478 3.30426L12 3.26L14.7752 3.30426C15.8626 3.3216 16.4064 3.33028 16.8557 3.5897C17.305 3.84912 17.5844 4.31567 18.1431 5.24876L19.5691 7.63L20.9183 10.0555C21.447 11.0059 21.7114 11.4812 21.7114 12C21.7114 12.5188 21.447 12.9941 20.9183 13.9445L19.5691 16.37L18.1431 18.7512C17.5844 19.6843 17.305 20.1509 16.8557 20.4103C16.4064 20.6697 15.8626 20.6784 14.7752 20.6957L12 20.74L9.22478 20.6957C8.13732 20.6784 7.59359 20.6697 7.14426 20.4103C6.69493 20.1509 6.41555 19.6843 5.8568 18.7512L4.43089 16.37L3.08163 13.9445Z" stroke="#4E4D4C" stroke-width="2"/>
<path d="M12 15C13.6569 15 15 13.6569 15 12C15 10.3431 13.6569 9 12 9C10.3431 9 9 10.3431 9 12C9 13.6569 10.3431 15 12 15Z" stroke="#4E4D4C" stroke-width="2"/>
</svg>
