<svg width="25" height="24" viewBox="0 0 25 24" fill="none" xmlns="http://www.w3.org/2000/svg">
<path d="M7.5801 19.283L7.58011 19.283L7.60189 19.2775L7.6019 19.2775L10.2342 18.6194C10.2493 18.6156 10.2644 18.6119 10.2792 18.6082C10.502 18.5528 10.6992 18.5037 10.8782 18.4023C11.0572 18.301 11.2007 18.1571 11.3629 17.9947C11.3737 17.9838 11.3846 17.9729 11.3957 17.9618L18.5897 10.7678L18.5897 10.7678L18.613 10.7445C18.9264 10.4311 19.1965 10.1611 19.3837 9.91573C19.5843 9.65281 19.7362 9.36038 19.7362 9C19.7362 8.63961 19.5843 8.34719 19.3837 8.08427C19.1965 7.83894 18.9264 7.5689 18.613 7.2555L18.5897 7.23223L18.2362 7.58579L18.5897 7.23223L18.4182 7.06066L18.3949 7.03738C18.0815 6.72395 17.8114 6.45388 17.5661 6.2667C17.3032 6.0661 17.0108 5.91421 16.6504 5.91421C16.29 5.91421 15.9976 6.0661 15.7347 6.2667C15.4893 6.45388 15.2193 6.72395 14.9059 7.03739L14.8826 7.06066L7.68855 14.2547C7.67753 14.2658 7.66658 14.2767 7.65572 14.2875C7.49325 14.4496 7.34942 14.5932 7.24805 14.7722C7.14669 14.9512 7.09762 15.1484 7.04218 15.3711C7.03848 15.386 7.03474 15.401 7.03096 15.4162L6.36743 18.0703C6.36522 18.0791 6.36299 18.088 6.36075 18.097C6.32151 18.2537 6.2796 18.421 6.26585 18.5615C6.25071 18.7163 6.25424 18.9773 6.46365 19.1867C6.67306 19.3961 6.93412 19.3997 7.08885 19.3845C7.22938 19.3708 7.39672 19.3289 7.5534 19.2896C7.56234 19.2874 7.57124 19.2852 7.5801 19.283Z" stroke="#E68512"/>
<path d="M14.1504 7.5L17.1504 5.5L20.1504 8.5L18.1504 11.5L14.1504 7.5Z" fill="#E68512"/>
</svg>
