<svg width="972" height="972" viewBox="0 0 972 972" fill="none" xmlns="http://www.w3.org/2000/svg">
<path fill-rule="evenodd" clip-rule="evenodd" d="M661.531 855.876V774.786L747.441 666.365L833.361 557.951L837.651 517.272C840.001 494.898 842.331 421.074 842.801 353.22C843.631 236.826 842.951 229.122 830.911 217.1C813.881 200.09 802.881 201.035 787.281 220.843C775.391 235.95 774.301 245.651 774.301 336.623C774.301 392.767 776.801 435.912 780.051 435.912C783.221 435.912 792.101 446.095 799.801 458.536C810.451 475.753 812.441 484.653 808.151 495.78C800.421 515.77 681.441 642.44 670.401 642.44C649.251 642.44 665.501 616.33 721.041 561.08C753.781 528.518 780.561 497.514 780.561 492.188C780.561 477.593 762.411 454.688 750.851 454.688C740.081 454.688 725.441 466.216 597.251 575.606C546.961 618.526 515.601 649.943 512.681 660.339C510.131 669.426 508.031 734.595 508.031 805.158V933.455L584.781 935.214L661.531 936.972V855.876ZM464.941 927.485C470.931 911.876 464.531 664.945 457.841 653.717C447.261 635.95 227.336 454.688 216.36 454.688C202.858 454.688 185.385 474.452 185.385 489.722C185.385 496.744 210.521 526.878 244.903 561.08C298.381 614.277 319.175 646.914 296.032 641.332C291.421 640.218 258.999 609.151 223.984 572.289C150.828 495.273 147.363 485.16 182.253 450.307L204.18 428.402V331.741C204.18 237.452 203.805 234.699 188.8 219.716C170.149 201.078 158.064 200.352 141.53 216.868C129.652 228.734 129 237.728 129 389.544V549.709L217.832 659.694C266.693 720.188 307.334 775.556 308.155 782.728C308.975 789.9 309.877 827.45 310.166 866.177L310.686 936.584H386.061C446.231 936.584 462.141 934.751 464.941 927.485Z" fill="white"/>
<path fill-rule="evenodd" clip-rule="evenodd" d="M526.081 376.642C564.871 314.016 598.501 258.225 600.821 252.662C607.561 236.514 594.481 231.279 546.141 230.764C522.431 230.514 502.401 230.009 501.651 229.646C500.621 229.154 519.301 90.6221 526.881 42.4965C527.381 39.364 525.831 35.9982 523.441 35.0144C518.241 32.8728 370.631 269.846 371.991 278.156C373.761 288.891 386.721 292.137 429.631 292.591C453.121 292.837 472.841 293.247 473.441 293.499C474.041 293.75 468.381 336.83 460.861 389.23C453.341 441.631 449.071 485.853 451.381 487.509C453.681 489.162 487.301 439.271 526.081 376.642Z" fill="#FA5507"/>
</svg>
