<svg width="26" height="26" viewBox="0 0 26 26" fill="none" xmlns="http://www.w3.org/2000/svg">
<path d="M5 7V6.25H4.25V7H5ZM13.2932 16.3538C13.5861 16.6467 14.0609 16.6467 14.3538 16.3538C14.6467 16.0609 14.6467 15.5861 14.3538 15.2932L13.2932 16.3538ZM5.75 14.0588V7H4.25V14.0588H5.75ZM5 7.75H12.0588V6.25H5V7.75ZM4.46967 7.53033L13.2932 16.3538L14.3538 15.2932L5.53033 6.46967L4.46967 7.53033Z" fill="#232323"/>
<path d="M5.88232 17.5882V17.5882C5.88232 18.9032 5.88232 19.5607 6.08491 20.0837C6.38972 20.8705 7.01179 21.4925 7.79861 21.7974C8.32153 21.9999 8.97905 21.9999 10.2941 21.9999H13.9999C16.8284 21.9999 18.2426 21.9999 19.1213 21.1213C19.9999 20.2426 19.9999 18.8284 19.9999 15.9999V12.2941C19.9999 10.979 19.9999 10.3215 19.7974 9.79861C19.4925 9.01179 18.8705 8.38972 18.0837 8.08491C17.5607 7.88232 16.9032 7.88232 15.5882 7.88232V7.88232" stroke="#232323" stroke-width="1.5" stroke-linecap="round"/>
</svg>
