<svg width="26" height="26" viewBox="0 0 26 26" fill="none" xmlns="http://www.w3.org/2000/svg">
<path fill-rule="evenodd" clip-rule="evenodd" d="M14.4568 6.24774C13.9681 6.08678 13.4469 6 12.9073 6C10.3837 6 8.26377 7.89747 7.98509 10.4056L7.7844 12.2118C7.68938 13.067 7.41105 13.8915 6.96838 14.6293L6.50767 15.3972L6.50094 15.4084C6.3792 15.6113 6.27824 15.7795 6.20433 15.918C6.13032 16.0565 6.06169 16.2039 6.02985 16.3616C5.88213 17.0933 6.29486 17.8222 6.99824 18.072C7.14986 18.1258 7.31152 18.1428 7.46844 18.1506C7.62518 18.1585 7.82143 18.1585 8.05808 18.1584H8.07107H17.7435H17.7565C17.9931 18.1585 18.1894 18.1585 18.3461 18.1506C18.503 18.1428 18.6647 18.1258 18.8163 18.072C19.5197 17.8222 19.9324 17.0933 19.7847 16.3616C19.7529 16.2039 19.6842 16.0565 19.6102 15.918C19.5363 15.7795 19.4354 15.6113 19.3137 15.4084L19.3136 15.4084L19.3069 15.3972L18.8462 14.6293C18.4184 13.9163 18.144 13.1222 18.0404 12.2978C17.7291 12.4027 17.3987 12.4661 17.0558 12.4815C17.1823 13.4226 17.4996 14.3286 17.9887 15.1438L18.4494 15.9117C18.5796 16.1286 18.6674 16.2753 18.7281 16.389C18.7901 16.505 18.8022 16.5483 18.8045 16.5595C18.8537 16.8034 18.7162 17.0464 18.4817 17.1296C18.471 17.1334 18.4276 17.1453 18.2962 17.1519C18.1675 17.1583 17.9965 17.1584 17.7435 17.1584H8.07107C7.81809 17.1584 7.64708 17.1583 7.51837 17.1519C7.38698 17.1453 7.3436 17.1334 7.33287 17.1296C7.09841 17.0464 6.96083 16.8034 7.01007 16.5595C7.01232 16.5483 7.02447 16.505 7.08644 16.389C7.14714 16.2753 7.235 16.1286 7.36516 15.9117L7.82587 15.1438C8.34253 14.2827 8.66739 13.3203 8.77828 12.3222L8.97898 10.516C9.20138 8.51433 10.8933 7 12.9073 7C13.2056 7 13.4969 7.03324 13.7774 7.09637C13.9602 6.77988 14.1898 6.49384 14.4568 6.24774ZM16.3494 7.39175C16.0221 7.51025 15.7446 7.73291 15.557 8.01971C16.2446 8.6409 16.7149 9.50297 16.8319 10.484C16.8519 10.4848 16.8719 10.4852 16.892 10.4852C17.2304 10.4852 17.5442 10.3797 17.8023 10.1999C17.6334 9.09756 17.1067 8.12355 16.3494 7.39175Z" fill="#232323"/>
<path d="M10.5971 17.982C10.7334 18.5751 11.0336 19.0993 11.4511 19.4731C11.8687 19.8469 12.3804 20.0496 12.9068 20.0496C13.4331 20.0496 13.9448 19.8469 14.3624 19.4731C14.78 19.0993 15.0801 18.5751 15.2164 17.982" stroke="#232323" stroke-linecap="round"/>
<circle cx="17.595" cy="8.595" r="2.595" fill="#232323"/>
</svg>
