<svg width="45" height="45" viewBox="0 0 45 45" fill="none" xmlns="http://www.w3.org/2000/svg">
<path d="M25.7916 12.113L24.7965 12.2125L24.7965 12.2125L25.7916 12.113ZM25.4275 10.6843L26.1413 9.98389L26.1413 9.98389L25.4275 10.6843ZM26.4957 14.606L26.9572 13.7189L26.9571 13.7189L26.4957 14.606ZM26.6562 14.6725L26.9571 13.7189L26.9571 13.7189L26.6562 14.6725ZM28.9168 13.4076L28.2836 12.6336L28.2836 12.6336L28.9168 13.4076ZM30.1845 12.6547L30.175 11.6548L30.175 11.6548L30.1845 12.6547ZM30.3029 12.6606L30.194 13.6547L30.194 13.6547L30.3029 12.6606ZM31.4894 13.5359L32.1965 12.8288L32.1965 12.8288L31.4894 13.5359ZM32.6237 14.6702L31.9166 15.3773L31.9166 15.3773L32.6237 14.6702ZM33.4989 15.8566L32.5049 15.9656L32.5049 15.9656L33.4989 15.8566ZM33.5049 15.9751L34.5048 15.9846L34.5048 15.9846L33.5049 15.9751ZM32.752 17.2427L33.526 17.8759L33.526 17.8759L32.752 17.2427ZM31.4871 19.5033L30.5335 19.8042L30.5335 19.8042L31.4871 19.5033ZM31.5536 19.6638L32.4408 19.2023L32.4408 19.2023L31.5536 19.6638ZM34.0466 20.3679L34.1462 19.3729L34.1462 19.3729L34.0466 20.3679ZM35.4756 20.732L34.7751 21.4457L34.7752 21.4458L35.4756 20.732ZM35.555 20.8198L34.7751 21.4457L34.7752 21.4457L35.555 20.8198ZM35.555 25.3398L36.3349 25.9657L36.3349 25.9657L35.555 25.3398ZM35.4756 25.4275L36.176 26.1413L36.1761 26.1412L35.4756 25.4275ZM34.0464 25.7917L34.1459 26.7867L34.1459 26.7867L34.0464 25.7917ZM31.5536 26.4955L30.6666 26.0337L30.6666 26.0337L31.5536 26.4955ZM31.4869 26.6566L32.4406 26.9573L32.4406 26.9573L31.4869 26.6566ZM32.7515 28.9165L31.9776 29.5497L31.9776 29.5497L32.7515 28.9165ZM33.5042 30.1838L32.5043 30.1935L32.5043 30.1935L33.5042 30.1838ZM33.4983 30.3026L34.4923 30.4118L34.4923 30.4118L33.4983 30.3026ZM31.4886 32.6234L30.7815 31.9162L30.7815 31.9162L31.4886 32.6234ZM30.3025 33.4984L30.1934 32.5044L30.1934 32.5044L30.3025 33.4984ZM30.1837 33.5043L30.1934 32.5044L30.1934 32.5044L30.1837 33.5043ZM28.9164 32.7516L29.5496 31.9777L29.5496 31.9777L28.9164 32.7516ZM26.6565 31.487L26.3558 30.5332L26.3558 30.5332L26.6565 31.487ZM26.4954 31.5537L26.0336 30.6667L26.0336 30.6667L26.4954 31.5537ZM25.7916 34.0464L26.7866 34.1459L26.7866 34.1459L25.7916 34.0464ZM25.4275 35.4754L26.1413 36.1758L26.1413 36.1758L25.4275 35.4754ZM25.3397 35.5549L25.9655 36.3348L25.9656 36.3348L25.3397 35.5549ZM20.8198 35.555L21.4456 34.775L21.4456 34.775L20.8198 35.555ZM20.7319 35.4754L20.0181 36.1758L20.0181 36.1758L20.7319 35.4754ZM20.3678 34.0467L19.3728 34.1462L19.3728 34.1462L20.3678 34.0467ZM19.6637 31.5537L19.2022 32.4408L19.2023 32.4408L19.6637 31.5537ZM19.5032 31.4872L19.2023 32.4408L19.2023 32.4408L19.5032 31.4872ZM17.2426 32.7522L17.8758 33.5261L17.8758 33.5261L17.2426 32.7522ZM15.9749 33.505L15.9654 32.5051L15.9654 32.5051L15.9749 33.505ZM15.8565 33.4991L15.7475 34.4932L15.7475 34.4932L15.8565 33.4991ZM14.67 32.6238L15.3771 31.9167L15.3771 31.9167L14.67 32.6238ZM13.5357 31.4896L12.8286 32.1967L12.8286 32.1967L13.5357 31.4896ZM12.6605 30.3031L11.6664 30.412L11.6664 30.412L12.6605 30.3031ZM12.6545 30.1847L13.6545 30.1942L13.6545 30.1942L12.6545 30.1847ZM13.4075 28.9169L12.6335 28.2837L12.6335 28.2837L13.4075 28.9169ZM14.6724 26.6563L13.7188 26.9572L13.7188 26.9572L14.6724 26.6563ZM14.6059 26.4957L13.7188 26.9572L13.7188 26.9572L14.6059 26.4957ZM12.1131 25.7916L12.2126 24.7966L12.163 24.7916H12.1131V25.7916ZM12.1131 25.7916L12.0136 26.7867L12.0632 26.7916H12.1131V25.7916ZM10.6844 25.4276L9.98409 26.1415L9.98409 26.1415L10.6844 25.4276ZM10.6048 25.3397L11.3848 24.7138L11.3848 24.7138L10.6048 25.3397ZM10.6048 20.8199L9.82479 20.1941L9.82479 20.1941L10.6048 20.8199ZM10.6845 20.7319L9.98416 20.018L9.98416 20.018L10.6845 20.7319ZM12.113 20.3679V19.3679H12.0631L12.0135 19.3729L12.113 20.3679ZM12.113 20.3679V21.3679H12.1629L12.2125 21.363L12.113 20.3679ZM14.6057 19.664L13.7186 19.2024L13.7186 19.2024L14.6057 19.664ZM14.6723 19.5032L15.6259 19.8041L15.6259 19.8041L14.6723 19.5032ZM13.4071 17.2425L14.1811 16.6092L14.1811 16.6092L13.4071 17.2425ZM12.6539 15.9741L13.6539 15.9649L13.6539 15.9649L12.6539 15.9741ZM12.6598 15.8562L13.6539 15.9649L13.6539 15.9649L12.6598 15.8562ZM13.5353 14.6693L14.2424 15.3764L14.2424 15.3764L13.5353 14.6693ZM15.8561 12.6599L15.7473 11.6658L15.7473 11.6658L15.8561 12.6599ZM15.974 12.654L15.9648 13.654L15.9648 13.654L15.974 12.654ZM17.2423 13.4072L17.8756 12.6332L17.8756 12.6332L17.2423 13.4072ZM19.5032 14.6724L19.8042 15.626L19.8042 15.626L19.5032 14.6724ZM19.6638 14.6058L20.1253 15.493L20.1253 15.493L19.6638 14.6058ZM20.3678 12.113L21.3629 12.2125L21.3629 12.2125L20.3678 12.113ZM20.7318 10.6843L20.018 9.98395L20.018 9.98395L20.7318 10.6843ZM20.8198 10.6047L21.4456 11.3847L21.4456 11.3846L20.8198 10.6047ZM25.3396 10.6047L25.9655 9.8248L25.9655 9.8248L25.3396 10.6047ZM26.7866 12.0135C26.7498 11.6452 26.715 11.2812 26.6488 10.9821C26.5773 10.6592 26.4467 10.2951 26.1413 9.98389L24.7137 11.3846C24.6546 11.3244 24.6668 11.2821 24.6961 11.4145C24.7307 11.5708 24.7548 11.7956 24.7965 12.2125L26.7866 12.0135ZM26.9571 13.7189C27.1139 13.8004 27.0704 13.9187 26.9921 13.5931C26.9146 13.2706 26.8645 12.7922 26.7866 12.0135L24.7965 12.2125C24.8682 12.9295 24.9303 13.5728 25.0475 14.0605C25.164 14.5451 25.3977 15.1621 26.0342 15.4932L26.9571 13.7189ZM26.9571 13.7189L26.9572 13.7189L26.0342 15.4932C26.1371 15.5467 26.2445 15.5912 26.3552 15.6261L26.9571 13.7189ZM28.2836 12.6336C27.6779 13.1292 27.3042 13.432 27.0213 13.6052C26.7358 13.7801 26.7887 13.6657 26.9571 13.7189L26.3552 15.6261C27.0394 15.8421 27.6409 15.5711 28.0659 15.3108C28.4937 15.0488 28.9924 14.6378 29.5501 14.1815L28.2836 12.6336ZM30.175 11.6548C29.739 11.6589 29.3892 11.824 29.1103 12.0018C28.852 12.1664 28.57 12.3992 28.2836 12.6336L29.5501 14.1815C29.8743 13.9162 30.0504 13.7743 30.1853 13.6883C30.2997 13.6154 30.2784 13.6539 30.194 13.6547L30.175 11.6548ZM30.4119 11.6666C30.3332 11.658 30.2541 11.654 30.175 11.6548L30.194 13.6547L30.194 13.6547L30.4119 11.6666ZM32.1965 12.8288C31.9348 12.5671 31.6774 12.3073 31.4368 12.1178C31.1769 11.9131 30.8453 11.7141 30.4119 11.6666L30.194 13.6547C30.1101 13.6455 30.0927 13.6051 30.1993 13.689C30.325 13.788 30.4861 13.9467 30.7823 14.243L32.1965 12.8288ZM33.3308 13.9631L32.1965 12.8288L30.7823 14.243L31.9166 15.3773L33.3308 13.9631ZM34.493 15.7476C34.4455 15.3142 34.2464 14.9826 34.0418 14.7228C33.8522 14.4821 33.5925 14.2248 33.3308 13.9631L31.9166 15.3773C32.2129 15.6735 32.3716 15.8346 32.4706 15.9603C32.5545 16.0668 32.5141 16.0494 32.5049 15.9656L34.493 15.7476ZM34.5048 15.9846C34.5056 15.9055 34.5016 15.8263 34.493 15.7476L32.5049 15.9656L32.5049 15.9656L34.5048 15.9846ZM33.526 17.8759C33.7603 17.5895 33.9932 17.3076 34.1578 17.0492C34.3356 16.7704 34.5007 16.4206 34.5048 15.9846L32.5049 15.9656C32.5057 15.8812 32.5442 15.8599 32.4713 15.9742C32.3853 16.1091 32.2434 16.2852 31.9781 16.6095L33.526 17.8759ZM32.4408 19.2023C32.4939 19.3708 32.3795 19.4236 32.5544 19.1381C32.7276 18.8553 33.0304 18.4816 33.526 17.8759L31.9781 16.6095C31.5219 17.1671 31.1108 17.6658 30.8489 18.0935C30.5886 18.5186 30.3176 19.12 30.5335 19.8042L32.4408 19.2023ZM32.4408 19.2023L32.4408 19.2023L30.5335 19.8042C30.5684 19.9149 30.6129 20.0224 30.6665 20.1254L32.4408 19.2023ZM34.1462 19.3729C33.3674 19.295 32.889 19.2449 32.5665 19.1674C32.241 19.0891 32.3592 19.0456 32.4408 19.2023L30.6665 20.1254C30.9976 20.7618 31.6146 20.9955 32.0992 21.112C32.5869 21.2292 33.2302 21.2912 33.9471 21.3629L34.1462 19.3729ZM36.176 20.0182C35.8647 19.7128 35.5006 19.5822 35.1777 19.5107C34.8785 19.4444 34.5145 19.4097 34.1462 19.3729L33.9471 21.3629C34.3641 21.4046 34.589 21.4288 34.7453 21.4634C34.8777 21.4927 34.8354 21.5048 34.7751 21.4457L36.176 20.0182ZM36.3349 20.1939C36.2855 20.1323 36.2324 20.0736 36.1759 20.0182L34.7752 21.4458L34.7751 21.4457L36.3349 20.1939ZM36.7752 22.2778C36.7752 21.9077 36.7768 21.542 36.7407 21.2377C36.7016 20.9093 36.6079 20.534 36.3349 20.1939L34.7752 21.4457C34.7223 21.3799 34.7386 21.339 34.7546 21.4737C34.7735 21.6326 34.7752 21.8588 34.7752 22.2778H36.7752ZM36.7752 23.8817V22.2778H34.7752V23.8817H36.7752ZM36.3349 25.9657C36.6078 25.6256 36.7016 25.2503 36.7406 24.9218C36.7768 24.6176 36.7752 24.2519 36.7752 23.8817H34.7752C34.7752 24.3007 34.7735 24.5269 34.7546 24.6859C34.7386 24.8205 34.7223 24.7797 34.7751 24.7138L36.3349 25.9657ZM36.1761 26.1412C36.2324 26.0859 36.2854 26.0273 36.3349 25.9657L34.7752 24.7138L34.7751 24.7138L36.1761 26.1412ZM34.1459 26.7867C34.5143 26.7499 34.8784 26.7151 35.1776 26.6489C35.5006 26.5774 35.8648 26.4467 36.176 26.1413L34.7752 24.7138C34.8354 24.6547 34.8777 24.6668 34.7452 24.6962C34.5889 24.7308 34.3639 24.755 33.9469 24.7967L34.1459 26.7867ZM32.4406 26.9573C32.359 27.114 32.2408 27.0704 32.5664 26.9922C32.8889 26.9147 33.3673 26.8646 34.1459 26.7867L33.9469 24.7967C33.23 24.8683 32.5868 24.9304 32.0992 25.0475C31.6147 25.1639 30.9978 25.3975 30.6666 26.0337L32.4406 26.9573ZM32.4406 26.9573L32.4406 26.9573L30.6666 26.0337C30.6128 26.137 30.5681 26.2448 30.5331 26.3559L32.4406 26.9573ZM33.5255 28.2833C33.0301 27.6778 32.7274 27.3042 32.5542 27.0215C32.3793 26.736 32.4937 26.7888 32.4406 26.9573L30.5331 26.3559C30.3175 27.0399 30.5884 27.6412 30.8487 28.0661C31.1106 28.4937 31.5215 28.9923 31.9776 29.5497L33.5255 28.2833ZM34.5042 30.1741C34.4999 29.7382 34.3349 29.3885 34.1572 29.1097C33.9925 28.8515 33.7598 28.5696 33.5255 28.2833L31.9776 29.5497C32.2428 29.8739 32.3847 30.0499 32.4707 30.1848C32.5436 30.2991 32.5051 30.2778 32.5043 30.1935L34.5042 30.1741ZM34.4923 30.4118C34.501 30.3329 34.5049 30.2535 34.5042 30.1741L32.5043 30.1935L32.5043 30.1935L34.4923 30.4118ZM33.3304 32.1958C33.592 31.9342 33.8516 31.6769 34.0411 31.4363C34.2457 31.1766 34.4447 30.845 34.4923 30.4118L32.5043 30.1935C32.5135 30.1096 32.5539 30.0922 32.47 30.1987C32.371 30.3244 32.2123 30.4854 31.9161 30.7816L33.3304 32.1958ZM32.1957 33.3305L33.3304 32.1958L31.9161 30.7816L30.7815 31.9162L32.1957 33.3305ZM30.4117 34.4924C30.8449 34.4448 31.1765 34.2458 31.4362 34.0412C31.6768 33.8517 31.9341 33.5921 32.1957 33.3305L30.7815 31.9162C30.4853 32.2124 30.3243 32.3711 30.1986 32.4701C30.0921 32.554 30.1095 32.5136 30.1934 32.5044L30.4117 34.4924ZM30.174 34.5043C30.2534 34.505 30.3327 34.5011 30.4117 34.4924L30.1934 32.5044L30.1934 32.5044L30.174 34.5043ZM28.2832 33.5256C28.5695 33.7599 28.8514 33.9926 29.1096 34.1573C29.3884 34.335 29.7381 34.5 30.174 34.5043L30.1934 32.5044C30.2777 32.5052 30.299 32.5437 30.1847 32.4708C30.0498 32.3848 29.8738 32.2429 29.5496 31.9777L28.2832 33.5256ZM26.9572 32.4407C26.7887 32.4938 26.7359 32.3794 27.0213 32.5543C27.3041 32.7275 27.6777 33.0302 28.2832 33.5256L29.5496 31.9777C28.9922 31.5216 28.4936 31.1107 28.066 30.8488C27.6411 30.5885 27.0398 30.3176 26.3558 30.5332L26.9572 32.4407ZM26.9572 32.4407L26.9572 32.4407L26.3558 30.5332C26.2447 30.5683 26.1369 30.6129 26.0336 30.6667L26.9572 32.4407ZM26.7866 34.1459C26.8645 33.3673 26.9146 32.889 26.9921 32.5665C27.0703 32.2409 27.1139 32.3591 26.9572 32.4407L26.0336 30.6667C25.3974 30.9979 25.1638 31.6148 25.0474 32.0993C24.9303 32.5869 24.8682 33.2301 24.7966 33.9469L26.7866 34.1459ZM26.1413 36.1758C26.4467 35.8646 26.5773 35.5004 26.6488 35.1775C26.715 34.8783 26.7498 34.5143 26.7866 34.1459L24.7966 33.9469C24.7549 34.3639 24.7307 34.5888 24.6961 34.7451C24.6668 34.8776 24.6546 34.8353 24.7138 34.775L26.1413 36.1758ZM25.9656 36.3348C26.0272 36.2853 26.0859 36.2323 26.1413 36.1758L24.7138 34.775L24.7137 34.775L25.9656 36.3348ZM23.8817 36.775C24.2518 36.775 24.6175 36.7767 24.9217 36.7405C25.2502 36.7015 25.6255 36.6078 25.9655 36.3348L24.7138 34.775C24.7796 34.7222 24.8204 34.7385 24.6858 34.7545C24.5269 34.7734 24.3007 34.775 23.8817 34.775V36.775ZM22.2776 36.775H23.8817V34.775H22.2776V36.775ZM20.1939 36.3349C20.534 36.6078 20.9092 36.7015 21.2377 36.7405C21.5419 36.7767 21.9075 36.775 22.2776 36.775V34.775C21.8587 34.775 21.6325 34.7734 21.4736 34.7545C21.339 34.7385 21.3798 34.7222 21.4456 34.775L20.1939 36.3349ZM20.0181 36.1758C20.0735 36.2322 20.1322 36.2854 20.1939 36.3349L21.4456 34.775L21.4456 34.775L20.0181 36.1758ZM19.3728 34.1462C19.4096 34.5144 19.4444 34.8784 19.5106 35.1775C19.5821 35.5005 19.7127 35.8645 20.0181 36.1758L21.4457 34.775C21.5048 34.8353 21.4926 34.8776 21.4633 34.7451C21.4287 34.5889 21.4046 34.364 21.3629 33.9472L19.3728 34.1462ZM19.2023 32.4408C19.0455 32.3593 19.089 32.241 19.1673 32.5666C19.2448 32.8891 19.2949 33.3675 19.3728 34.1462L21.3629 33.9472C21.2912 33.2303 21.2291 32.5869 21.1119 32.0992C20.9954 31.6146 20.7617 30.9976 20.1252 30.6666L19.2023 32.4408ZM19.2023 32.4408L19.2022 32.4408L20.1252 30.6666C20.0223 30.613 19.9149 30.5685 19.8042 30.5336L19.2023 32.4408ZM17.8758 33.5261C18.4815 33.0305 18.8552 32.7277 19.1381 32.5545C19.4236 32.3796 19.3708 32.494 19.2023 32.4408L19.8042 30.5336C19.12 30.3176 18.5185 30.5886 18.0935 30.849C17.6657 31.1109 17.167 31.522 16.6093 31.9782L17.8758 33.5261ZM15.9844 34.505C16.4204 34.5008 16.7702 34.3358 17.0491 34.158C17.3074 33.9933 17.5894 33.7605 17.8758 33.5261L16.6093 31.9782C16.2851 32.2435 16.109 32.3854 15.9741 32.4715C15.8597 32.5444 15.881 32.5059 15.9654 32.5051L15.9844 34.505ZM15.7475 34.4932C15.8262 34.5018 15.9053 34.5057 15.9844 34.505L15.9654 32.5051L15.9654 32.5051L15.7475 34.4932ZM13.9629 33.331C14.2246 33.5927 14.482 33.8524 14.7226 34.0419C14.9825 34.2466 15.3141 34.4457 15.7475 34.4932L15.9654 32.5051C16.0493 32.5143 16.0667 32.5547 15.9601 32.4708C15.8344 32.3718 15.6733 32.213 15.3771 31.9167L13.9629 33.331ZM12.8286 32.1967L13.9629 33.331L15.3771 31.9167L14.2429 30.7825L12.8286 32.1967ZM11.6664 30.412C11.7139 30.8454 11.913 31.1771 12.1176 31.4369C12.3072 31.6776 12.5669 31.935 12.8286 32.1967L14.2429 30.7825C13.9466 30.4862 13.7878 30.3251 13.6888 30.1994C13.6049 30.0929 13.6453 30.1103 13.6545 30.1942L11.6664 30.412ZM11.6546 30.1753C11.6538 30.2543 11.6578 30.3334 11.6664 30.412L13.6545 30.1942L13.6545 30.1942L11.6546 30.1753ZM12.6335 28.2837C12.3991 28.5701 12.1663 28.8521 12.0016 29.1105C11.8238 29.3894 11.6587 29.7392 11.6546 30.1753L13.6545 30.1942C13.6537 30.2786 13.6152 30.2999 13.6881 30.1855C13.7741 30.0505 13.9161 29.8744 14.1814 29.5501L12.6335 28.2837ZM13.7188 26.9572C13.6656 26.7887 13.78 26.7359 13.6051 27.0214C13.4319 27.3043 13.1291 27.678 12.6335 28.2837L14.1814 29.5501C14.6377 28.9925 15.0487 28.4938 15.3107 28.066C15.571 27.641 15.842 27.0395 15.6261 26.3554L13.7188 26.9572ZM13.7188 26.9572L13.7188 26.9572L15.6261 26.3554C15.5912 26.2446 15.5466 26.1371 15.493 26.0341L13.7188 26.9572ZM12.0136 26.7867C12.7922 26.8646 13.2706 26.9147 13.5931 26.9922C13.9186 27.0704 13.8003 27.1139 13.7188 26.9572L15.493 26.0341C15.1619 25.3977 14.545 25.164 14.0604 25.0475C13.5727 24.9303 12.9295 24.8683 12.2126 24.7966L12.0136 26.7867ZM12.1131 26.7916H12.1131V24.7916H12.1131V26.7916ZM9.98409 26.1415C10.2953 26.4468 10.6594 26.5774 10.9823 26.6489C11.2813 26.7151 11.6453 26.7499 12.0136 26.7867L12.2126 24.7966C11.7957 24.7549 11.5709 24.7308 11.4146 24.6962C11.2822 24.6669 11.3245 24.6547 11.3848 24.7138L9.98409 26.1415ZM9.82485 25.9655C9.87441 26.0273 9.92758 26.086 9.98409 26.1415L11.3848 24.7138L11.3848 24.7138L9.82485 25.9655ZM9.38477 23.8819C9.38477 24.252 9.38312 24.6176 9.41925 24.9218C9.45827 25.2502 9.552 25.6254 9.82485 25.9655L11.3848 24.7138C11.4376 24.7796 11.4213 24.8205 11.4053 24.6859C11.3864 24.527 11.3848 24.3008 11.3848 23.8819H9.38477ZM9.38477 22.2776V23.8819H11.3848V22.2776H9.38477ZM9.82479 20.1941C9.55197 20.5342 9.45826 20.9094 9.41925 21.2378C9.38312 21.5419 9.38477 21.9076 9.38477 22.2776H11.3848C11.3848 21.8587 11.3864 21.6326 11.4053 21.4737C11.4213 21.3391 11.4376 21.3799 11.3848 21.4457L9.82479 20.1941ZM9.98416 20.018C9.92759 20.0735 9.87438 20.1323 9.82479 20.1941L11.3848 21.4457L11.3848 21.4457L9.98416 20.018ZM12.0135 19.3729C11.6453 19.4097 11.2813 19.4444 10.9823 19.5107C10.6594 19.5821 10.2954 19.7127 9.98416 20.018L11.3848 21.4457C11.3245 21.5048 11.2823 21.4927 11.4146 21.4634C11.5709 21.4288 11.7957 21.4046 12.2125 21.363L12.0135 19.3729ZM12.113 19.3679H12.113V21.3679H12.113V19.3679ZM13.7186 19.2024C13.8002 19.0456 13.9184 19.0892 13.5929 19.1674C13.2704 19.2449 12.7921 19.295 12.0135 19.3729L12.2125 21.363C12.9293 21.2913 13.5726 21.2292 14.0602 21.112C14.5448 20.9956 15.1616 20.7619 15.4928 20.1256L13.7186 19.2024ZM13.7186 19.2024L13.7186 19.2024L15.4928 20.1256C15.5464 20.0225 15.591 19.9149 15.6259 19.8041L13.7186 19.2024ZM12.6332 17.8757C13.1288 18.4814 13.4316 18.8552 13.6049 19.1381C13.7799 19.4237 13.6654 19.3709 13.7186 19.2024L15.6259 19.8041C15.8418 19.1199 15.5707 18.5184 15.3104 18.0934C15.0484 17.6657 14.6374 17.1669 14.1811 16.6092L12.6332 17.8757ZM11.654 15.9834C11.658 16.4196 11.8231 16.7695 12.001 17.0486C12.1657 17.307 12.3986 17.5891 12.6332 17.8757L14.1811 16.6092C13.9156 16.2848 13.7736 16.1086 13.6875 15.9736C13.6146 15.8591 13.6531 15.8804 13.6539 15.9649L11.654 15.9834ZM11.6657 15.7474C11.6572 15.8258 11.6532 15.9046 11.654 15.9834L13.6539 15.9649L13.6539 15.9649L11.6657 15.7474ZM12.8282 13.9622C12.5664 14.2239 12.3066 14.4814 12.117 14.7222C11.9122 14.9821 11.7131 15.3139 11.6657 15.7474L13.6539 15.9649C13.6447 16.0488 13.6043 16.0662 13.6882 15.9596C13.7872 15.8339 13.946 15.6727 14.2424 15.3764L12.8282 13.9622ZM13.962 12.8283L12.8282 13.9622L14.2424 15.3764L15.3763 14.2425L13.962 12.8283ZM15.7473 11.6658C15.3138 11.7132 14.982 11.9124 14.7221 12.1171C14.4813 12.3067 14.2238 12.5665 13.962 12.8283L15.3763 14.2425C15.6726 13.9461 15.8338 13.7873 15.9595 13.6883C16.0661 13.6044 16.0487 13.6448 15.9648 13.654L15.7473 11.6658ZM15.9833 11.6541C15.9045 11.6533 15.8257 11.6573 15.7473 11.6658L15.9648 13.654L15.9648 13.654L15.9833 11.6541ZM17.8756 12.6332C17.589 12.3987 17.3069 12.1658 17.0484 12.0011C16.7694 11.8232 16.4195 11.6581 15.9833 11.6541L15.9648 13.654C15.8803 13.6532 15.859 13.6147 15.9734 13.6876C16.1085 13.7737 16.2847 13.9157 16.6091 14.1811L17.8756 12.6332ZM19.2023 13.7187C19.3708 13.6655 19.4236 13.78 19.138 13.605C18.8551 13.4317 18.4813 13.1289 17.8756 12.6332L16.6091 14.1811C17.1668 14.6375 17.6656 15.0485 18.0934 15.3105C18.5184 15.5709 19.1199 15.8419 19.8042 15.626L19.2023 13.7187ZM19.2023 13.7187L19.2023 13.7187L19.8042 15.626C19.9149 15.5911 20.0223 15.5466 20.1253 15.493L19.2023 13.7187ZM19.3728 12.0135C19.2949 12.7921 19.2448 13.2705 19.1673 13.593C19.0891 13.9185 19.0455 13.8003 19.2023 13.7187L20.1253 15.493C20.7618 15.1619 20.9955 14.5449 21.1119 14.0603C21.2291 13.5726 21.2912 12.9293 21.3629 12.2125L19.3728 12.0135ZM20.018 9.98395C19.7127 10.2952 19.5821 10.6592 19.5106 10.9821C19.4444 11.2812 19.4096 11.6452 19.3728 12.0135L21.3629 12.2125C21.4046 11.7956 21.4287 11.5707 21.4633 11.4145C21.4926 11.2821 21.5048 11.3244 21.4456 11.3846L20.018 9.98395ZM20.194 9.82474C20.1322 9.87429 20.0735 9.92745 20.018 9.98395L21.4456 11.3846L21.4456 11.3847L20.194 9.82474ZM22.2776 9.38464C21.9075 9.38464 21.5419 9.383 21.2377 9.41913C20.9093 9.45815 20.534 9.55188 20.194 9.82475L21.4456 11.3846C21.3798 11.4375 21.339 11.4212 21.4736 11.4052C21.6325 11.3863 21.8587 11.3846 22.2776 11.3846V9.38464ZM23.8817 9.38464H22.2776V11.3846H23.8817V9.38464ZM25.9655 9.8248C25.6254 9.5519 25.2502 9.45816 24.9217 9.41914C24.6175 9.383 24.2519 9.38464 23.8817 9.38464V11.3846C24.3007 11.3846 24.5269 11.3863 24.6858 11.4052C24.8204 11.4212 24.7796 11.4375 24.7138 11.3846L25.9655 9.8248ZM26.1413 9.98389C26.0859 9.92743 26.0272 9.87431 25.9655 9.8248L24.7137 11.3846L24.7138 11.3846L26.1413 9.98389ZM27.1596 23.0799C27.1596 25.3322 25.3338 27.158 23.0816 27.158V29.158C26.4384 29.158 29.1596 26.4368 29.1596 23.0799H27.1596ZM23.0816 19.0019C25.3338 19.0019 27.1596 20.8277 27.1596 23.0799H29.1596C29.1596 19.7231 26.4384 17.0019 23.0816 17.0019V19.0019ZM19.0035 23.0799C19.0035 20.8277 20.8293 19.0019 23.0816 19.0019V17.0019C19.7247 17.0019 17.0035 19.7231 17.0035 23.0799H19.0035ZM23.0816 27.158C20.8293 27.158 19.0035 25.3322 19.0035 23.0799H17.0035C17.0035 26.4368 19.7247 29.158 23.0816 29.158V27.158Z" fill="#232323"/>
</svg>
