<svg width="45" height="45" viewBox="0 0 45 45" fill="none" xmlns="http://www.w3.org/2000/svg">
<path fill-rule="evenodd" clip-rule="evenodd" d="M22.3394 10.25C17.9032 10.25 14.1764 13.5857 13.6865 17.9948L13.3391 21.121C13.2601 21.8325 13.2261 22.1303 13.1687 22.4177C13.0512 23.006 12.8585 23.5768 12.5955 24.116C12.467 24.3793 12.3135 24.6368 11.9451 25.2507L10.884 27.0192L10.8465 27.0817C10.4759 27.6992 10.1415 28.2565 9.94725 28.7248C9.74374 29.2155 9.57499 29.8859 9.94993 30.5481C10.3249 31.2103 10.9865 31.4105 11.512 31.4885C12.0135 31.5629 12.6634 31.5628 13.3836 31.5627H13.3836L13.4565 31.5627H31.2224L31.2953 31.5627H31.2953C32.0155 31.5628 32.6654 31.5629 33.1669 31.4885C33.6924 31.4105 34.354 31.2103 34.729 30.5481C35.1039 29.8859 34.9352 29.2155 34.7316 28.7248C34.5374 28.2565 34.203 27.6992 33.8324 27.0817L33.7949 27.0192L32.7338 25.2507C32.3654 24.6368 32.2119 24.3793 32.0834 24.116C31.8204 23.5768 31.6277 23.006 31.5102 22.4177C31.4528 22.1303 31.4188 21.8325 31.3398 21.121L31.1854 19.7312C30.5904 19.9986 29.9307 20.1474 29.2361 20.1474C29.2305 20.1474 29.2249 20.1474 29.2193 20.1474L29.352 21.3418L29.3573 21.3899L29.3574 21.39C29.4295 22.0396 29.4726 22.4272 29.5489 22.8095C29.7 23.5659 29.9477 24.2997 30.2859 24.9929C30.4569 25.3433 30.6576 25.6778 30.9939 26.2383L31.0188 26.2797L32.0799 28.0482C32.5002 28.7487 32.7539 29.1768 32.8842 29.491L32.891 29.5074L32.8734 29.5101C32.5369 29.56 32.0393 29.5627 31.2224 29.5627H13.4565C12.6396 29.5627 12.142 29.56 11.8055 29.5101L11.7879 29.5074L11.7947 29.491C11.925 29.1768 12.1787 28.7487 12.599 28.0482L13.6601 26.2797L13.685 26.2383L13.685 26.2382C14.0213 25.6778 14.222 25.3433 14.393 24.9929C14.7312 24.2997 14.9789 23.5659 15.13 22.8095C15.2063 22.4272 15.2494 22.0395 15.3216 21.3898L15.3269 21.3418L15.6743 18.2156C16.0516 14.8194 18.9223 12.25 22.3394 12.25C23.3543 12.25 24.321 12.4766 25.1885 12.8843C25.5599 12.2853 26.0605 11.7749 26.6514 11.3919C25.3756 10.6636 23.9015 10.25 22.3394 10.25ZM28.441 12.7458C27.7673 12.9482 27.202 13.4013 26.8534 13.9966C28.0045 15.0442 28.7932 16.4912 28.9955 18.137C29.0748 18.1439 29.155 18.1474 29.2361 18.1474C29.8763 18.1474 30.4656 17.9293 30.9337 17.5635C30.6294 15.6788 29.7294 14.011 28.441 12.7458ZM32.9513 29.7003C32.9512 29.7002 32.9508 29.6976 32.9507 29.693C32.9514 29.6981 32.9515 29.7004 32.9513 29.7003ZM33.0808 29.4632C33.0849 29.4609 33.0872 29.4599 33.0874 29.46C33.0876 29.4601 33.0856 29.4612 33.0808 29.4632ZM11.5915 29.46C11.5917 29.4599 11.594 29.4609 11.5981 29.4632C11.5933 29.4612 11.5913 29.4601 11.5915 29.46ZM11.7282 29.693C11.7281 29.6976 11.7277 29.7002 11.7276 29.7003C11.7274 29.7004 11.7275 29.6981 11.7282 29.693Z" fill="#232323"/>
<path d="M18.3417 31.1226C18.5775 32.1493 19.097 33.0564 19.8198 33.7034C20.5425 34.3505 21.4281 34.7012 22.3391 34.7012C23.2501 34.7012 24.1357 34.3505 24.8584 33.7034C25.5812 33.0564 26.1007 32.1493 26.3365 31.1226" stroke="#232323" stroke-width="2" stroke-linecap="round"/>
<ellipse cx="30.4533" cy="14.876" rx="4.49135" ry="4.49135" fill="#232323"/>
</svg>
