<svg width="26" height="26" viewBox="0 0 26 26" fill="none" xmlns="http://www.w3.org/2000/svg">
<path d="M14.9017 6.99863L15.4002 6.95875L15.3992 6.94888L14.9017 6.99863ZM14.8807 6.82114L15.3727 6.73172L15.3727 6.73172L14.8807 6.82114ZM14.9017 6.9987L14.4032 7.03858L14.4042 7.04846L14.9017 6.9987ZM14.9405 7.31672L15.4287 7.20899V7.20898L14.9405 7.31672ZM16.4551 7.94411L16.186 7.52268L16.186 7.52268L16.4551 7.94411ZM16.7074 7.74658L17.024 8.13356L17.024 8.13356L16.7074 7.74658ZM16.8477 7.63592L17.1323 8.04701L17.1324 8.04701L16.8477 7.63592ZM18.0652 7.69664L17.7411 8.07737L17.7411 8.07737L18.0652 7.69664ZM18.1938 7.82071L17.8403 8.17427L17.8403 8.17427L18.1938 7.82071ZM18.8492 8.47608L19.2089 8.12873L19.2027 8.12253L18.8492 8.47608ZM18.8492 8.4761L18.4894 8.82345L18.4956 8.82966L18.8492 8.4761ZM18.9732 8.60466L19.3539 8.28054V8.28054L18.9732 8.60466ZM19.0339 9.82215L19.445 10.1068L19.445 10.1068L19.0339 9.82215ZM18.9233 9.96244L19.297 10.2946L19.3038 10.287L19.3103 10.2791L18.9233 9.96244ZM18.9233 9.96245L18.5496 9.63027L18.5428 9.63791L18.5363 9.64583L18.9233 9.96245ZM18.7258 10.2147L19.1472 10.4838L19.1472 10.4838L18.7258 10.2147ZM19.3532 11.7294L19.2455 12.2176L19.3532 11.7294ZM19.6713 11.7681L19.6216 12.2656L19.6286 12.2663L19.6357 12.2668L19.6713 11.7681ZM19.6713 11.7681L19.7211 11.2706L19.714 11.2699L19.707 11.2694L19.6713 11.7681ZM19.8489 11.7891L19.7594 12.281L19.7594 12.281L19.8489 11.7891ZM20.6668 12.6929L21.1652 12.6528V12.6528L20.6668 12.6929ZM20.6668 13.9771L20.1684 13.937L20.1684 13.937L20.6668 13.9771ZM19.8489 14.8808L19.9384 15.3728L19.9384 15.3728L19.8489 14.8808ZM19.6712 14.9019L19.7209 15.3994H19.7209L19.6712 14.9019ZM19.3533 14.9405L19.2456 14.4523L19.2456 14.4523L19.3533 14.9405ZM18.7258 16.4554L18.3044 16.7245L18.3044 16.7245L18.7258 16.4554ZM18.923 16.7073L18.536 17.0239L18.5389 17.0274L18.923 16.7073ZM18.923 16.7073L18.5389 17.0274L18.5434 17.0327L18.923 16.7073ZM18.923 16.7073L19.3101 16.3906L19.3027 16.3819L18.923 16.7073ZM19.0335 16.8474L19.4446 16.5627L19.4446 16.5627L19.0335 16.8474ZM18.9728 18.0651L19.3535 18.3892L19.3535 18.3892L18.9728 18.0651ZM18.0649 18.9729L18.3891 19.3536L18.3891 19.3536L18.0649 18.9729ZM16.8473 19.0336L17.1319 18.6226L17.1319 18.6226L16.8473 19.0336ZM16.7072 18.9232L17.0239 18.5361L17.0142 18.5285L16.7072 18.9232ZM16.7072 18.9232L16.3871 19.3073L16.3935 19.3127L16.4002 19.3178L16.7072 18.9232ZM16.7072 18.9231L17.0273 18.539L17.0238 18.5362L16.7072 18.9231ZM16.4553 18.7259L16.7244 18.3046L16.7244 18.3045L16.4553 18.7259ZM14.9404 19.3534L14.4521 19.2457L14.4521 19.2458L14.9404 19.3534ZM14.9017 19.6712L14.4042 19.6215L14.9017 19.6712ZM14.8807 19.8489L15.3727 19.9383L15.3727 19.9383L14.8807 19.8489ZM13.9769 20.6668L13.9369 20.1684H13.9369L13.9769 20.6668ZM12.6928 20.6668L12.7328 20.1684H12.7328L12.6928 20.6668ZM11.789 19.8488L12.2809 19.7594L12.2809 19.7594L11.789 19.8488ZM11.768 19.6714L12.2655 19.6217L12.2651 19.6182L11.768 19.6714ZM11.768 19.6714L11.2705 19.7211L11.2708 19.7247L11.768 19.6714ZM11.7293 19.3533L12.2175 19.2456L11.7293 19.3533ZM10.2146 18.7259L10.4837 19.1474L10.4837 19.1474L10.2146 18.7259ZM9.96231 18.9234L9.64568 18.5364L9.64222 18.5393L9.96231 18.9234ZM9.96229 18.9234L10.2789 19.3104L10.2824 19.3076L9.96229 18.9234ZM9.82197 19.0341L9.53735 18.623L9.53735 18.623L9.82197 19.0341ZM8.60451 18.9734L8.92862 18.5927L8.92862 18.5927L8.60451 18.9734ZM8.47592 18.8493L8.12237 19.2029L8.12237 19.2029L8.47592 18.8493ZM7.82057 18.194L8.17418 17.8404L8.16786 17.8343L7.82057 18.194ZM7.82055 18.194L7.46693 18.5476L7.47325 18.5537L7.82055 18.194ZM7.69647 18.0653L8.0772 17.7412L8.0772 17.7412L7.69647 18.0653ZM7.63574 16.8479L7.22466 16.5633L7.22465 16.5633L7.63574 16.8479ZM7.74646 16.7075L7.36293 16.3867L7.35948 16.3909L7.74646 16.7075ZM7.74649 16.7075L8.13001 17.0283L8.13347 17.0241L7.74649 16.7075ZM7.94397 16.4552L7.52255 16.1862L7.52255 16.1862L7.94397 16.4552ZM7.31657 14.9405L7.20885 15.4288L7.20885 15.4288L7.31657 14.9405ZM6.99862 14.9018L7.04839 14.4042L7.0383 14.4034L6.99862 14.9018ZM6.99859 14.9018L7.03826 14.4034L7.03328 14.403L6.99859 14.9018ZM6.99854 14.9018L6.94878 15.3993L6.9563 15.4001L6.96385 15.4006L6.99854 14.9018ZM6.82118 14.8809L6.91059 14.3889H6.91059L6.82118 14.8809ZM6.00321 13.977L6.5016 13.937L6.00321 13.977ZM6.00321 12.6929L6.5016 12.733L6.5016 12.733L6.00321 12.6929ZM6.8212 11.7891L6.9106 12.281L6.91061 12.281L6.8212 11.7891ZM6.99853 11.7681L6.96413 11.2693L6.95644 11.2698L6.94877 11.2706L6.99853 11.7681ZM6.99855 11.7681L7.03295 12.2669L7.04064 12.2664L7.0483 12.2656L6.99855 11.7681ZM7.31642 11.7294L7.42411 12.2177L7.42411 12.2177L7.31642 11.7294ZM7.94384 10.2147L7.52243 10.4838L7.52243 10.4838L7.94384 10.2147ZM7.74625 9.9623L8.13324 9.64567L8.13036 9.64221L7.74625 9.9623ZM7.74624 9.9623L7.33022 10.2396L7.34503 10.2619L7.36213 10.2824L7.74624 9.9623ZM7.74624 9.9623L8.16227 9.68494L8.1487 9.6646L8.13322 9.64567L7.74624 9.9623ZM7.63532 9.82164L8.04644 9.53707L8.04644 9.53707L7.63532 9.82164ZM7.69603 8.60437L7.31526 8.28031L7.31526 8.28031L7.69603 8.60437ZM7.82029 8.47556L7.46674 8.122V8.122L7.82029 8.47556ZM8.47542 7.82043L8.82897 8.17398L8.82897 8.17398L8.47542 7.82043ZM8.60424 7.69616L8.9283 8.07693L8.92831 8.07693L8.60424 7.69616ZM9.8215 7.63545L10.1061 7.22433L10.1061 7.22433L9.8215 7.63545ZM9.96214 7.74636L9.64552 8.13334L9.64552 8.13334L9.96214 7.74636ZM10.2146 7.944L9.94551 8.36542L9.94551 8.36542L10.2146 7.944ZM11.7293 7.3166L11.241 7.20888L11.241 7.20888L11.7293 7.3166ZM11.768 6.99859L11.2705 6.94884V6.94884L11.768 6.99859ZM11.789 6.82117L11.297 6.73175L11.297 6.73176L11.789 6.82117ZM12.6928 6.00321L12.6528 5.50481V5.50481L12.6928 6.00321ZM13.9769 6.00321L14.017 5.50482H14.017L13.9769 6.00321ZM15.3992 6.94888C15.391 6.8662 15.3843 6.7958 15.3727 6.73172L14.3888 6.91057C14.3915 6.92539 14.3941 6.94702 14.4042 7.04837L15.3992 6.94888ZM15.4001 6.95883L15.4001 6.95875L14.4033 7.0385L14.4033 7.03857L15.4001 6.95883ZM15.4287 7.20898C15.4241 7.18825 15.4184 7.14085 15.3992 6.94894L14.4042 7.04846C14.4198 7.20399 14.4314 7.33033 14.4522 7.42446L15.4287 7.20898ZM16.186 7.52268C15.8932 7.70966 15.5036 7.54829 15.4287 7.20899L14.4522 7.42446C14.6768 8.44236 15.8456 8.92648 16.7242 8.36554L16.186 7.52268ZM16.3908 7.3596C16.2415 7.48176 16.2039 7.51125 16.186 7.52268L16.7242 8.36554C16.8054 8.31366 16.903 8.23257 17.024 8.13356L16.3908 7.3596ZM16.5631 7.22483C16.5096 7.26191 16.4551 7.30699 16.3908 7.3596L17.024 8.13356C17.1029 8.06905 17.12 8.05558 17.1323 8.04701L16.5631 7.22483ZM18.3893 7.31592C17.8716 6.87517 17.1221 6.83779 16.5631 7.22483L17.1324 8.04701C17.3187 7.91799 17.5685 7.93045 17.7411 8.07737L18.3893 7.31592ZM18.5474 7.46716C18.4886 7.40841 18.4389 7.35814 18.3893 7.31591L17.7411 8.07737C17.7526 8.08713 17.7682 8.10224 17.8403 8.17427L18.5474 7.46716ZM19.2027 8.12253L18.5474 7.46716L17.8403 8.17427L18.4956 8.82963L19.2027 8.12253ZM19.2089 8.1288L19.2089 8.12878L18.4895 8.82338L18.4895 8.8234L19.2089 8.1288ZM19.3539 8.28054C19.3117 8.23096 19.2615 8.18127 19.2027 8.12254L18.4956 8.82966C18.5676 8.90165 18.5827 8.91732 18.5925 8.92878L19.3539 8.28054ZM19.445 10.1068C19.8321 9.54775 19.7947 8.79828 19.3539 8.28054L18.5925 8.92878C18.7394 9.10136 18.7519 9.35118 18.6229 9.53753L19.445 10.1068ZM19.3103 10.2791C19.3629 10.2148 19.4079 10.1603 19.445 10.1068L18.6229 9.53752C18.6143 9.5499 18.6008 9.567 18.5363 9.64582L19.3103 10.2791ZM19.297 10.2946L19.297 10.2946L18.5496 9.63026L18.5496 9.63027L19.297 10.2946ZM19.1472 10.4838C19.1587 10.4659 19.1882 10.4283 19.3103 10.2791L18.5363 9.64583C18.4373 9.7668 18.3563 9.86438 18.3044 9.94562L19.1472 10.4838ZM19.4609 11.2411C19.1216 11.1662 18.9602 10.7766 19.1472 10.4838L18.3044 9.94561C17.7434 10.8242 18.2275 11.993 19.2455 12.2176L19.4609 11.2411ZM19.7211 11.2706C19.5291 11.2514 19.4817 11.2457 19.4609 11.2411L19.2455 12.2176C19.3396 12.2384 19.466 12.2501 19.6216 12.2656L19.7211 11.2706ZM19.707 11.2694L19.7069 11.2694L19.6357 12.2668L19.6357 12.2668L19.707 11.2694ZM19.9383 11.2971C19.8742 11.2855 19.8038 11.2789 19.7211 11.2706L19.6216 12.2656C19.723 12.2758 19.7446 12.2783 19.7594 12.281L19.9383 11.2971ZM21.1652 12.6528C21.1107 11.9751 20.6072 11.4188 19.9383 11.2971L19.7594 12.281C19.9824 12.3216 20.1502 12.507 20.1684 12.7329L21.1652 12.6528ZM21.17 12.8716C21.17 12.7885 21.1704 12.7178 21.1652 12.6528L20.1684 12.7329C20.1696 12.7479 20.17 12.7697 20.17 12.8716H21.17ZM21.17 13.7983V12.8716H20.17V13.7983H21.17ZM21.1652 14.0172C21.1704 13.9522 21.17 13.8814 21.17 13.7983H20.17C20.17 13.9002 20.1696 13.922 20.1684 13.937L21.1652 14.0172ZM19.9384 15.3728C20.6073 15.2511 21.1107 14.6948 21.1652 14.0172L20.1684 13.937C20.1502 14.1629 19.9824 14.3484 19.7595 14.3889L19.9384 15.3728ZM19.7209 15.3994C19.8037 15.3911 19.8742 15.3844 19.9384 15.3728L19.7595 14.3889C19.7446 14.3916 19.723 14.3942 19.6214 14.4043L19.7209 15.3994ZM19.4609 15.4288C19.4816 15.4243 19.529 15.4186 19.7209 15.3994L19.6214 14.4043C19.4659 14.4199 19.3396 14.4316 19.2456 14.4523L19.4609 15.4288ZM19.1472 16.1862C18.9601 15.8933 19.1215 15.5036 19.4609 15.4288L19.2456 14.4523C18.2274 14.6767 17.7432 15.8458 18.3044 16.7245L19.1472 16.1862ZM19.31 16.3906C19.188 16.2416 19.1586 16.2041 19.1472 16.1862L18.3044 16.7245C18.3562 16.8056 18.4372 16.9031 18.536 17.0239L19.31 16.3906ZM19.3071 16.3872L19.3071 16.3872L18.5389 17.0274L18.5389 17.0274L19.3071 16.3872ZM19.3027 16.3819L19.3027 16.3819L18.5434 17.0327L18.5434 17.0327L19.3027 16.3819ZM19.4446 16.5627C19.4075 16.5093 19.3625 16.4549 19.31 16.3907L18.5361 17.0239C18.6005 17.1026 18.6139 17.1197 18.6225 17.1321L19.4446 16.5627ZM19.3535 18.3892C19.7944 17.8714 19.8318 17.1218 19.4446 16.5627L18.6225 17.1321C18.7515 17.3184 18.7391 17.5683 18.5921 17.7409L19.3535 18.3892ZM19.2025 18.547C19.2611 18.4884 19.3113 18.4387 19.3535 18.3892L18.5921 17.7409C18.5823 17.7523 18.5673 17.768 18.4953 17.8399L19.2025 18.547ZM18.5469 19.2026L19.2025 18.547L18.4953 17.8399L17.8398 18.4955L18.5469 19.2026ZM18.3891 19.3536C18.4386 19.3114 18.4882 19.2612 18.5469 19.2026L17.8398 18.4955C17.7679 18.5674 17.7522 18.5825 17.7408 18.5922L18.3891 19.3536ZM16.5626 19.4447C17.1217 19.8319 17.8713 19.7945 18.3891 19.3536L17.7408 18.5922C17.5682 18.7392 17.3183 18.7517 17.1319 18.6226L16.5626 19.4447ZM16.3906 19.3101C16.4548 19.3627 16.5091 19.4077 16.5626 19.4447L17.1319 18.6226C17.1196 18.614 17.1025 18.6006 17.0238 18.5362L16.3906 19.3101ZM16.4002 19.3178L16.4002 19.3179L17.0142 18.5285L17.0141 18.5285L16.4002 19.3178ZM16.3871 19.3073L16.3871 19.3073L17.0273 18.539L17.0272 18.539L16.3871 19.3073ZM16.1861 19.1473C16.204 19.1587 16.2415 19.1882 16.3905 19.3101L17.0238 18.5362C16.903 18.4373 16.8055 18.3564 16.7244 18.3046L16.1861 19.1473ZM15.4287 19.461C15.5035 19.1217 15.8932 18.9602 16.1861 19.1473L16.7244 18.3045C15.8457 17.7433 14.6766 18.2276 14.4521 19.2457L15.4287 19.461ZM15.3992 19.721C15.4184 19.5292 15.4241 19.4817 15.4287 19.461L14.4521 19.2458C14.4314 19.3398 14.4198 19.466 14.4042 19.6215L15.3992 19.721ZM15.3727 19.9383C15.3843 19.8742 15.391 19.8037 15.3992 19.721L14.4042 19.6215C14.3941 19.723 14.3915 19.7446 14.3888 19.7594L15.3727 19.9383ZM14.017 21.1652C14.6947 21.1107 15.2511 20.6072 15.3727 19.9383L14.3888 19.7594C14.3483 19.9824 14.1628 20.1502 13.9369 20.1684L14.017 21.1652ZM13.7982 21.17C13.8813 21.17 13.9521 21.1704 14.017 21.1652L13.9369 20.1684C13.9219 20.1696 13.9001 20.17 13.7982 20.17V21.17ZM12.8714 21.17H13.7982V20.17H12.8714V21.17ZM12.6527 21.1652C12.7177 21.1704 12.7884 21.17 12.8714 21.17V20.17C12.7696 20.17 12.7478 20.1696 12.7328 20.1684L12.6527 21.1652ZM11.297 19.9383C11.4186 20.6072 11.975 21.1108 12.6527 21.1652L12.7328 20.1684C12.5069 20.1502 12.3214 19.9824 12.2809 19.7594L11.297 19.9383ZM11.2705 19.7212C11.2787 19.8038 11.2854 19.8742 11.297 19.9383L12.2809 19.7594C12.2782 19.7446 12.2756 19.723 12.2655 19.6217L11.2705 19.7212ZM11.2708 19.7247L11.2708 19.7247L12.2651 19.6182L12.2651 19.6181L11.2708 19.7247ZM11.241 19.461C11.2456 19.4818 11.2513 19.5292 11.2705 19.7211L12.2655 19.6216C12.25 19.4661 12.2383 19.3397 12.2175 19.2456L11.241 19.461ZM10.4837 19.1474C10.7765 18.9604 11.1661 19.1217 11.241 19.461L12.2175 19.2456C11.9929 18.2277 10.8241 17.7435 9.94554 18.3045L10.4837 19.1474ZM10.2789 19.3104C10.4282 19.1883 10.4658 19.1588 10.4837 19.1474L9.94554 18.3045C9.86428 18.3564 9.76669 18.4375 9.6457 18.5365L10.2789 19.3104ZM10.2824 19.3076L10.2824 19.3075L9.64222 18.5393L9.6422 18.5393L10.2824 19.3076ZM10.1066 19.4452C10.1601 19.4081 10.2146 19.363 10.2789 19.3104L9.64567 18.5365C9.56684 18.601 9.54974 18.6145 9.53735 18.623L10.1066 19.4452ZM8.2804 19.3541C8.79813 19.7949 9.54757 19.8322 10.1066 19.4452L9.53735 18.623C9.35101 18.752 9.1012 18.7396 8.92862 18.5927L8.2804 19.3541ZM8.12237 19.2029C8.1811 19.2616 8.23081 19.3119 8.2804 19.3541L8.92862 18.5927C8.91716 18.5829 8.90149 18.5678 8.82948 18.4958L8.12237 19.2029ZM8.12234 19.2029L8.12237 19.2029L8.82948 18.4958L8.82945 18.4958L8.12234 19.2029ZM7.46701 18.5475L8.12234 19.2029L8.82945 18.4958L8.17412 17.8404L7.46701 18.5475ZM7.47325 18.5537L7.47327 18.5537L8.16786 17.8343L8.16784 17.8343L7.47325 18.5537ZM7.31573 18.3894C7.35796 18.439 7.40825 18.4888 7.46699 18.5475L8.17411 17.8404C8.10207 17.7684 8.08696 17.7527 8.0772 17.7412L7.31573 18.3894ZM7.22465 16.5633C6.83763 17.1223 6.87501 17.8717 7.31573 18.3894L8.0772 17.7412C7.93029 17.5687 7.91783 17.3189 8.04684 17.1325L7.22465 16.5633ZM7.35948 16.3909C7.30684 16.4552 7.26174 16.5097 7.22466 16.5633L8.04683 17.1325C8.05541 17.1201 8.0689 17.103 8.13343 17.0241L7.35948 16.3909ZM7.36298 16.3867L7.36295 16.3867L8.12996 17.0283L8.12999 17.0283L7.36298 16.3867ZM7.52255 16.1862C7.51113 16.204 7.48164 16.2416 7.35951 16.3909L8.13347 17.0241C8.23245 16.9031 8.31353 16.8055 8.36539 16.7243L7.52255 16.1862ZM7.20885 15.4288C7.54817 15.5037 7.70955 15.8933 7.52255 16.1862L8.36539 16.7243C8.9264 15.8457 8.44225 14.6769 7.42429 14.4523L7.20885 15.4288ZM6.94886 15.3993C7.14074 15.4185 7.18812 15.4242 7.20885 15.4288L7.42429 14.4523C7.33018 14.4315 7.20387 14.4199 7.04838 14.4043L6.94886 15.3993ZM6.95891 15.4002L6.95895 15.4003L7.0383 14.4034L7.03826 14.4034L6.95891 15.4002ZM6.96385 15.4006L6.96389 15.4006L7.03328 14.403L7.03324 14.403L6.96385 15.4006ZM6.73176 15.3728C6.79581 15.3844 6.86618 15.3911 6.94878 15.3993L7.04831 14.4043C6.947 14.3942 6.9254 14.3916 6.91059 14.3889L6.73176 15.3728ZM5.50481 14.017C5.55923 14.6948 6.06276 15.2512 6.73176 15.3728L6.91059 14.3889C6.68759 14.3484 6.51974 14.1629 6.5016 13.937L5.50481 14.017ZM5.5 13.7984C5.5 13.8815 5.4996 13.9521 5.50481 14.017L6.5016 13.937C6.5004 13.922 6.5 13.9002 6.5 13.7984H5.5ZM5.5 12.8715V13.7984H6.5V12.8715H5.5ZM5.50481 12.6529C5.4996 12.7178 5.5 12.7885 5.5 12.8715H6.5C6.5 12.7697 6.5004 12.748 6.5016 12.733L5.50481 12.6529ZM6.73181 11.2971C6.06277 11.4187 5.55921 11.9751 5.50481 12.6529L6.5016 12.733C6.51974 12.507 6.68759 12.3215 6.9106 12.281L6.73181 11.2971ZM6.94877 11.2706C6.86618 11.2789 6.79584 11.2855 6.7318 11.2971L6.91061 12.281C6.92541 12.2783 6.947 12.2758 7.04829 12.2656L6.94877 11.2706ZM6.96415 11.2693L6.96413 11.2693L7.03293 12.2669L7.03295 12.2669L6.96415 11.2693ZM7.20872 11.2411C7.188 11.2457 7.14062 11.2514 6.9488 11.2706L7.0483 12.2656C7.20377 12.2501 7.33003 12.2384 7.42411 12.2177L7.20872 11.2411ZM7.52243 10.4838C7.70945 10.7767 7.54806 11.1663 7.20872 11.2411L7.42411 12.2177C8.44214 11.9931 8.92632 10.8242 8.36525 9.94557L7.52243 10.4838ZM7.35927 10.2789C7.48149 10.4283 7.51101 10.4659 7.52243 10.4838L8.36525 9.94558C8.31339 9.86437 8.23228 9.76675 8.13323 9.64568L7.35927 10.2789ZM7.36213 10.2824L7.36214 10.2824L8.13036 9.64221L8.13036 9.6422L7.36213 10.2824ZM7.33022 10.2396L7.33022 10.2396L8.16227 9.68495L8.16227 9.68494L7.33022 10.2396ZM7.2242 10.1062C7.26133 10.1598 7.30652 10.2144 7.35927 10.2789L8.13322 9.64567C8.06854 9.56663 8.05502 9.54947 8.04644 9.53707L7.2242 10.1062ZM7.31526 8.28031C6.87467 8.79799 6.83731 9.54725 7.2242 10.1062L8.04644 9.53707C7.91748 9.35075 7.92993 9.101 8.0768 8.92844L7.31526 8.28031ZM7.46674 8.122C7.4079 8.18084 7.35754 8.23063 7.31526 8.28031L8.0768 8.92844C8.08657 8.91695 8.10171 8.90125 8.17385 8.82911L7.46674 8.122ZM8.12187 7.46688L7.46674 8.122L8.17385 8.82911L8.82897 8.17398L8.12187 7.46688ZM8.28018 7.31539C8.2305 7.35768 8.18071 7.40804 8.12187 7.46688L8.82897 8.17398C8.90112 8.10184 8.91682 8.08671 8.9283 8.07693L8.28018 7.31539ZM10.1061 7.22433C9.54712 6.83744 8.79786 6.87481 8.28018 7.3154L8.92831 8.07693C9.10087 7.93007 9.35062 7.91761 9.53693 8.04657L10.1061 7.22433ZM10.2788 7.35938C10.2143 7.30664 10.1597 7.26146 10.1061 7.22433L9.53693 8.04657C9.54934 8.05516 9.56649 8.06867 9.64552 8.13334L10.2788 7.35938ZM10.4837 7.52258C10.4658 7.51116 10.4282 7.48163 10.2788 7.35938L9.64552 8.13334C9.76662 8.23242 9.86427 8.31355 9.94551 8.36542L10.4837 7.52258ZM11.241 7.20888C11.1661 7.5482 10.7765 7.70958 10.4837 7.52258L9.94551 8.36542C10.8241 8.92641 11.9929 8.44227 12.2175 7.42433L11.241 7.20888ZM11.2705 6.94884C11.2513 7.14075 11.2456 7.18815 11.241 7.20888L12.2175 7.42433C12.2383 7.3302 12.25 7.20388 12.2655 7.04834L11.2705 6.94884ZM11.297 6.73176C11.2854 6.79582 11.2787 6.86619 11.2705 6.94884L12.2655 7.04835C12.2756 6.94701 12.2782 6.9254 12.2809 6.91058L11.297 6.73176ZM12.6528 5.50481C11.975 5.55924 11.4186 6.06276 11.297 6.73175L12.2809 6.91058C12.3214 6.68759 12.5069 6.51975 12.7328 6.5016L12.6528 5.50481ZM12.8714 5.5C12.7884 5.5 12.7177 5.4996 12.6528 5.50481L12.7328 6.5016C12.7478 6.5004 12.7696 6.5 12.8714 6.5V5.5ZM13.7982 5.5H12.8714V6.5H13.7982V5.5ZM14.017 5.50482C13.952 5.4996 13.8813 5.5 13.7982 5.5V6.5C13.9001 6.5 13.9219 6.5004 13.9369 6.50161L14.017 5.50482ZM15.3727 6.73172C15.2511 6.06276 14.6947 5.55926 14.017 5.50482L13.9369 6.50161C14.1628 6.51975 14.3483 6.68759 14.3888 6.91057L15.3727 6.73172ZM15.7699 13.3351C15.7699 14.6793 14.6801 15.7691 13.3359 15.7691V16.7691C15.2324 16.7691 16.7699 15.2316 16.7699 13.3351H15.7699ZM13.3359 10.9011C14.6801 10.9011 15.7699 11.9908 15.7699 13.3351H16.7699C16.7699 11.4385 15.2324 9.90106 13.3359 9.90106V10.9011ZM10.9019 13.3351C10.9019 11.9908 11.9916 10.9011 13.3359 10.9011V9.90106C11.4393 9.90106 9.90186 11.4385 9.90186 13.3351H10.9019ZM13.3359 15.7691C11.9916 15.7691 10.9019 14.6793 10.9019 13.3351H9.90186C9.90186 15.2316 11.4393 16.7691 13.3359 16.7691V15.7691Z" fill="#232323"/>
</svg>
