<svg width="24" height="24" viewBox="0 0 24 24" fill="none" xmlns="http://www.w3.org/2000/svg">
<path fill-rule="evenodd" clip-rule="evenodd" d="M5 3C3.89543 3 3 3.89543 3 5V19C3 20.1046 3.89543 21 5 21H19C20.1046 21 21 20.1046 21 19V5C21 3.89543 20.1046 3 19 3H5ZM9.14253 5.57141C8.59024 5.57141 8.14253 6.01912 8.14253 6.57141V17.4286C8.14253 17.9808 8.59024 18.4286 9.14253 18.4286H9.71395C10.2662 18.4286 10.714 17.9808 10.714 17.4286V6.57141C10.714 6.01912 10.2662 5.57141 9.71395 5.57141H9.14253Z" fill="white"/>
</svg>
