<svg width="24" height="24" viewBox="0 0 24 24" fill="none" xmlns="http://www.w3.org/2000/svg">
<path d="M17.7957 20.7059C17.4538 19.6427 16.7005 18.7033 15.6527 18.0332C14.6048 17.3632 13.3209 17 12.0001 17C10.6793 17 9.39544 17.3632 8.34757 18.0332C7.29971 18.7033 6.54644 19.6427 6.20459 20.7059" stroke="#4E4D4C" stroke-width="2"/>
<path d="M12 13C13.6569 13 15 11.6569 15 10C15 8.34315 13.6569 7 12 7C10.3431 7 9 8.34315 9 10C9 11.6569 10.3431 13 12 13Z" stroke="#4E4D4C" stroke-width="2" stroke-linecap="round"/>
<path d="M18 3H6C4.34315 3 3 4.34315 3 6V18C3 19.6569 4.34315 21 6 21H18C19.6569 21 21 19.6569 21 18V6C21 4.34315 19.6569 3 18 3Z" stroke="#4E4D4C" stroke-width="2"/>
</svg>
