<svg width="30" height="30" viewBox="0 0 30 30" fill="none" xmlns="http://www.w3.org/2000/svg">
<path fill-rule="evenodd" clip-rule="evenodd" d="M17.1636 7.20468C16.4627 6.91131 15.6947 6.75 14.8925 6.75C11.8925 6.75 9.37229 9.0057 9.041 11.9873L8.80943 14.0714C8.70254 15.0334 8.38944 15.961 7.89147 16.7909L7.35988 17.6769L7.34449 17.7026C7.14911 18.0282 6.97954 18.3108 6.86225 18.5476C6.74412 18.7862 6.62688 19.0765 6.632 19.4026C6.64133 19.9977 6.95249 20.5473 7.45799 20.8614C7.73501 21.0336 8.04419 21.0824 8.30956 21.1039C8.57303 21.1252 8.90261 21.1251 9.28234 21.1251H9.31222H20.4727H20.5026C20.8823 21.1251 21.2119 21.1252 21.4754 21.1039C21.7407 21.0824 22.0499 21.0336 22.3269 20.8614C22.8324 20.5473 23.1436 19.9977 23.1529 19.4026C23.158 19.0765 23.0408 18.7862 22.9227 18.5476C22.8054 18.3108 22.6358 18.0282 22.4405 17.7026L22.4404 17.7025L22.425 17.6769L21.8935 16.7909C21.3955 15.961 21.0824 15.0334 20.9755 14.0714L20.9467 13.8124C20.4976 13.9966 20.0058 14.0983 19.4902 14.0983C19.4832 14.0983 19.4762 14.0982 19.4692 14.0982L19.4847 14.2371C19.6154 15.4134 19.9983 16.5478 20.6072 17.5627L21.1388 18.4487C21.354 18.8073 21.4914 19.0374 21.5784 19.2132C21.6336 19.3246 21.6488 19.3772 21.6526 19.3915C21.6476 19.4676 21.6082 19.5372 21.5455 19.5806C21.5313 19.5848 21.4783 19.5987 21.3545 19.6087C21.1589 19.6245 20.891 19.6251 20.4727 19.6251H9.31222C8.89397 19.6251 8.62599 19.6245 8.43045 19.6087C8.30659 19.5987 8.25363 19.5848 8.23938 19.5806C8.17675 19.5372 8.1373 19.4676 8.13232 19.3915C8.13609 19.3772 8.15137 19.3246 8.20651 19.2132C8.29356 19.0374 8.43093 18.8073 8.64612 18.4487L9.17771 17.5627C9.78666 16.5478 10.1695 15.4134 10.3003 14.2371L10.5318 12.153C10.7787 9.931 12.6568 8.25 14.8925 8.25C15.3165 8.25 15.7276 8.31047 16.1172 8.42362C16.377 7.94714 16.7348 7.5318 17.1636 7.20468ZM19.0531 8.47191C18.5346 8.59829 18.1023 8.94442 17.8602 9.40602C18.6009 10.0861 19.1094 11.0202 19.2446 12.082C19.325 12.0927 19.407 12.0983 19.4902 12.0983C19.9517 12.0983 20.3734 11.9284 20.6963 11.6477C20.486 10.4097 19.895 9.31242 19.0531 8.47191Z" fill="#232323"/>
<path d="M12.2275 20.7484C12.3847 21.4328 12.731 22.0376 13.2129 22.4689C13.6947 22.9003 14.2851 23.1341 14.8924 23.1341C15.4997 23.1341 16.0901 22.9003 16.572 22.4689C17.0538 22.0376 17.4002 21.4328 17.5574 20.7484" stroke="#232323" stroke-width="1.5" stroke-linecap="round"/>
<ellipse cx="20.3018" cy="9.91733" rx="2.99423" ry="2.99423" fill="#232323"/>
</svg>
