<svg width="30" height="30" viewBox="0 0 30 30" fill="none" xmlns="http://www.w3.org/2000/svg">
<path d="M17.1941 8.07536L16.447 8.14251L16.4478 8.14998L17.1941 8.07536ZM17.1941 8.07533L17.9411 8.00818L17.9403 8.00069L17.1941 8.07533ZM17.3204 8.88494L18.0108 8.59207L18.0108 8.59207L17.3204 8.88494ZM18.6158 9.42154L18.3347 8.72622L18.3347 8.72622L18.6158 9.42154ZM19.2775 8.93839L18.8275 8.33839L18.8149 8.3479L18.8026 8.35792L19.2775 8.93839ZM19.2776 8.93838L19.7276 9.53838L19.7402 9.52888L19.7525 9.51885L19.2776 8.93838ZM19.6448 8.66516L19.2984 7.99995L19.2984 7.99995L19.6448 8.66516ZM20.6544 8.71552L20.2436 9.34297L20.2436 9.34297L20.6544 8.71552ZM20.9926 9.02392L20.4623 9.55425L20.4623 9.55425L20.9926 9.02392ZM21.7488 9.78011L21.2185 10.3104L21.2185 10.3104L21.7488 9.78011ZM22.0572 10.1183L22.6846 9.70739L22.6846 9.70739L22.0572 10.1183ZM22.1075 11.128L22.7728 11.4744L22.7728 11.4744L22.1075 11.128ZM21.8344 11.4951L21.2539 11.0202L21.2539 11.0202L21.8344 11.4951ZM21.3512 12.1568L20.6559 11.8757L20.6559 11.8757L21.3512 12.1568ZM21.8879 13.4523L22.1807 12.7619L22.1807 12.7618L21.8879 13.4523ZM22.6974 13.5786L22.7721 12.8323L22.7721 12.8323L22.6974 13.5786ZM23.1504 13.6451L22.9249 14.3604L22.9249 14.3604L23.1504 13.6451ZM23.8287 14.3946L24.5629 14.2414L24.5629 14.2414L23.8287 14.3946ZM23.8287 16.3785L23.0945 16.2253L23.0945 16.2253L23.8287 16.3785ZM23.1504 17.128L22.9249 16.4127L22.9249 16.4127L23.1504 17.128ZM22.6973 17.1945L22.6226 16.4482L22.6226 16.4482L22.6973 17.1945ZM21.8879 17.3207L22.1806 18.0112L22.1806 18.0112L21.8879 17.3207ZM21.3512 18.6164L20.6559 18.8977L20.6559 18.8977L21.3512 18.6164ZM21.834 19.2777L22.4145 18.8027L22.4145 18.8027L21.834 19.2777ZM22.1071 19.6446L21.4419 19.9911L21.4419 19.9911L22.1071 19.6446ZM22.0567 20.6545L22.6841 21.0655L22.6841 21.0655L22.0567 20.6545ZM21.7485 20.9925L22.2788 21.5228L22.2788 21.5228L21.7485 20.9925ZM20.9921 21.7489L20.4617 21.2186L20.4617 21.2186L20.9921 21.7489ZM20.6541 22.0571L20.2432 21.4297L20.2432 21.4297L20.6541 22.0571ZM19.6442 22.1075L19.9907 21.4423L19.9907 21.4423L19.6442 22.1075ZM19.2773 21.8344L18.7469 22.3648L18.7734 22.3912L18.8023 22.4149L19.2773 21.8344ZM19.2773 21.8344L19.8076 21.3041L19.7811 21.2776L19.7522 21.254L19.2773 21.8344ZM18.616 21.3516L18.8973 20.6563L18.8973 20.6563L18.616 21.3516ZM17.3203 21.8883L18.0108 22.181L18.0108 22.181L17.3203 21.8883ZM17.1941 22.6976L17.9383 22.7906L17.9394 22.7814L17.9404 22.7722L17.1941 22.6976ZM17.1941 22.6976L16.4499 22.6046L16.4487 22.6138L16.4478 22.623L17.1941 22.6976ZM17.1276 23.1506L16.4123 22.9252L16.4123 22.9252L17.1276 23.1506ZM16.3781 23.8289L16.2249 23.0947L16.2249 23.0948L16.3781 23.8289ZM14.3942 23.8289L14.5474 23.0948L14.5474 23.0948L14.3942 23.8289ZM13.6447 23.1506L14.36 22.9252L14.36 22.9252L13.6447 23.1506ZM13.5782 22.6978L12.8319 22.7724L12.8319 22.7724L13.5782 22.6978ZM13.4519 21.8882L14.1424 21.5953L14.1424 21.5953L13.4519 21.8882ZM12.1565 21.3516L11.8753 20.6563L11.8753 20.6563L12.1565 21.3516ZM11.4947 21.8348L11.9108 22.4588L11.9413 22.4385L11.9697 22.4152L11.4947 21.8348ZM11.4947 21.8348L11.0787 21.2107L11.0482 21.2311L11.0198 21.2543L11.4947 21.8348ZM11.1275 22.108L11.4739 22.7732L11.4739 22.7732L11.1275 22.108ZM10.1179 22.0576L9.70699 22.6851L9.70699 22.6851L10.1179 22.0576ZM9.77966 21.7492L10.31 21.2189L10.31 21.2189L9.77966 21.7492ZM9.02351 20.9931L8.47064 21.4999L8.48165 21.5119L8.49318 21.5234L9.02351 20.9931ZM9.0235 20.9931L9.57636 20.4863L9.56535 20.4743L9.55383 20.4627L9.0235 20.9931ZM8.71508 20.6548L9.34253 20.244L9.34253 20.244L8.71508 20.6548ZM8.66472 19.6452L9.32994 19.9916L9.32995 19.9916L8.66472 19.6452ZM8.93798 19.2779L9.51845 19.7529L9.52848 19.7406L9.53798 19.7279L8.93798 19.2779ZM8.93799 19.2779L8.35752 18.803L8.34749 18.8153L8.33799 18.8279L8.93799 19.2779ZM9.42114 18.6162L10.1164 18.8974L10.1164 18.8974L9.42114 18.6162ZM8.88452 17.3207L8.59168 18.0112L8.59168 18.0112L8.88452 17.3207ZM8.07508 17.1944L8.14971 16.4482L8.11249 16.4444H8.07508V17.1944ZM8.07506 17.1944L7.94656 17.9333L8.01033 17.9444H8.07506V17.1944ZM8.07505 17.1944L8.20355 16.4555L8.17675 16.4509L8.14967 16.4482L8.07505 17.1944ZM7.62229 17.128L7.84771 16.4127L7.84771 16.4127L7.62229 17.128ZM6.94392 16.3784L7.67812 16.2253L7.67812 16.2253L6.94392 16.3784ZM6.94391 14.3947L7.67812 14.5478L7.67812 14.5478L6.94391 14.3947ZM7.62232 13.645L7.84772 14.3604L7.84772 14.3604L7.62232 13.645ZM8.07502 13.5786L8.0004 12.8323L8.0004 12.8323L8.07502 13.5786ZM8.88435 13.4524L9.17715 14.1429L9.17715 14.1429L8.88435 13.4524ZM9.42099 12.1568L10.1163 11.8756L10.1163 11.8756L9.42099 12.1568ZM8.93775 11.495L8.35728 11.9699L8.35728 11.9699L8.93775 11.495ZM8.66424 11.1274L7.99897 11.4737L7.99898 11.4737L8.66424 11.1274ZM8.71459 10.1179L8.08708 9.70718L8.08708 9.70718L8.71459 10.1179ZM9.02319 9.77951L8.49286 9.24918L8.49286 9.24918L9.02319 9.77951ZM9.77911 9.02359L10.3094 9.55392L10.3094 9.55392L9.77911 9.02359ZM10.1176 8.71498L10.5283 9.34249L10.5283 9.34249L10.1176 8.71498ZM11.127 8.66464L11.4733 7.99937L11.127 8.66464ZM11.4945 8.93812L11.0196 9.51859L11.0319 9.52862L11.0445 9.53812L11.4945 8.93812ZM11.4946 8.93813L11.9695 8.35766L11.9572 8.34763L11.9446 8.33813L11.4946 8.93813ZM12.1565 9.42142L11.8753 10.1167L11.8753 10.1167L12.1565 9.42142ZM13.452 8.8848L12.7615 8.59196L12.7615 8.59196L13.452 8.8848ZM13.5782 8.07533L14.3245 8.14995L14.3282 8.11273V8.07533H13.5782ZM13.5782 8.07532L12.8319 8.00069L12.8282 8.03791V8.07532H13.5782ZM13.6447 7.62253L14.36 7.84795L14.36 7.84795L13.6447 7.62253ZM14.3943 6.94416L14.5474 7.67836L14.5474 7.67836L14.3943 6.94416ZM16.378 6.94417L16.2249 7.67836L16.2249 7.67836L16.378 6.94417ZM17.1276 7.6225L16.4123 7.84795L16.4123 7.84795L17.1276 7.6225ZM17.941 8.00821L17.941 8.00818L16.4471 8.14247L16.4471 8.1425L17.941 8.00821ZM18.0108 8.59207C18.0203 8.61445 18.0105 8.60234 17.9941 8.48833C17.9783 8.3791 17.9633 8.23079 17.9403 8.00073L16.4478 8.14998C16.4694 8.36642 16.4879 8.55298 16.5094 8.70196C16.5301 8.84615 16.5611 9.01559 16.6299 9.17782L18.0108 8.59207ZM18.3347 8.72622C18.2082 8.77736 18.0641 8.71766 18.0108 8.59207L16.6299 9.17781C17.0028 10.0569 18.0116 10.4748 18.8969 10.1169L18.3347 8.72622ZM18.8026 8.35792C18.6237 8.50433 18.5082 8.59859 18.4199 8.66471C18.3276 8.73372 18.3121 8.73533 18.3347 8.72622L18.8969 10.1169C19.0603 10.0508 19.202 9.9529 19.3186 9.86562C19.4391 9.77543 19.5841 9.65659 19.7525 9.51886L18.8026 8.35792ZM18.8276 8.33838L18.8275 8.33839L19.7275 9.53839L19.7276 9.53838L18.8276 8.33838ZM19.2984 7.99995C19.1211 8.09224 18.9582 8.23064 18.8026 8.35791L19.7525 9.51885C19.8486 9.44024 19.9052 9.39404 19.9491 9.3607C19.9902 9.32956 19.9982 9.3267 19.9912 9.33038L19.2984 7.99995ZM21.0653 8.08807C20.5356 7.74124 19.8599 7.70754 19.2984 7.99995L19.9912 9.33038C20.0714 9.28861 20.1679 9.29342 20.2436 9.34297L21.0653 8.08807ZM21.523 8.49359C21.3808 8.35147 21.2325 8.19754 21.0653 8.08807L20.2436 9.34297C20.2369 9.3386 20.2446 9.34225 20.2823 9.37732C20.3227 9.41486 20.3745 9.46648 20.4623 9.55425L21.523 8.49359ZM22.2791 9.24978L21.523 8.49359L20.4623 9.55425L21.2185 10.3104L22.2791 9.24978ZM22.6846 9.70739C22.5752 9.54024 22.4213 9.39188 22.2791 9.24978L21.2185 10.3104C21.3063 10.3982 21.3579 10.45 21.3954 10.4904C21.4305 10.5281 21.4341 10.5358 21.4297 10.5291L22.6846 9.70739ZM22.7728 11.4744C23.0652 10.9128 23.0315 10.2371 22.6846 9.70739L21.4297 10.5291C21.4793 10.6048 21.4841 10.7013 21.4423 10.7816L22.7728 11.4744ZM22.4148 11.9701C22.5421 11.8145 22.6805 11.6516 22.7728 11.4744L21.4423 10.7816C21.446 10.7745 21.4432 10.7825 21.412 10.8236C21.3787 10.8675 21.3325 10.9241 21.2539 11.0202L22.4148 11.9701ZM22.0466 12.438C22.0374 12.4605 22.0391 12.445 22.1081 12.3528C22.1742 12.2645 22.2684 12.149 22.4148 11.9701L21.2539 11.0202C21.1162 11.1885 20.9973 11.3335 20.9072 11.454C20.8199 11.5706 20.722 11.7123 20.6559 11.8757L22.0466 12.438ZM22.1807 12.7618C22.0551 12.7086 21.9954 12.5645 22.0466 12.438L20.6559 11.8757C20.2979 12.761 20.7158 13.7699 21.595 14.1428L22.1807 12.7618ZM22.7721 12.8323C22.542 12.8093 22.3937 12.7943 22.2845 12.7786C22.1704 12.7622 22.1583 12.7524 22.1807 12.7619L21.595 14.1428C21.7572 14.2116 21.9267 14.2426 22.0708 14.2633C22.2198 14.2847 22.4064 14.3032 22.6228 14.3249L22.7721 12.8323ZM23.3759 12.9298C23.1853 12.8697 22.9721 12.8523 22.7721 12.8323L22.6228 14.3249C22.7464 14.3372 22.8191 14.3446 22.8738 14.3521C22.9248 14.3591 22.9325 14.3628 22.9249 14.3604L23.3759 12.9298ZM24.5629 14.2414C24.4336 13.6217 23.9797 13.1201 23.3759 12.9298L22.9249 14.3604C23.0112 14.3876 23.076 14.4592 23.0945 14.5478L24.5629 14.2414ZM24.5998 14.8519C24.5998 14.6508 24.6037 14.4371 24.5629 14.2414L23.0945 14.5478C23.0929 14.5399 23.0958 14.548 23.0976 14.5995C23.0997 14.6546 23.0998 14.7277 23.0998 14.8519H24.5998ZM24.5998 15.9211V14.8519H23.0998V15.9211H24.5998ZM24.5629 16.5317C24.6037 16.336 24.5998 16.1222 24.5998 15.9211H23.0998C23.0998 16.0453 23.0997 16.1184 23.0976 16.1736C23.0958 16.2251 23.0929 16.2331 23.0945 16.2253L24.5629 16.5317ZM23.3759 17.8433C23.9797 17.6529 24.4336 17.1514 24.5629 16.5317L23.0945 16.2253C23.076 16.3138 23.0112 16.3855 22.9249 16.4127L23.3759 17.8433ZM22.7719 17.9407C22.972 17.9207 23.1853 17.9034 23.3759 17.8433L22.9249 16.4127C22.9326 16.4103 22.9248 16.4139 22.8738 16.4209C22.8191 16.4284 22.7463 16.4358 22.6226 16.4482L22.7719 17.9407ZM22.1806 18.0112C22.1582 18.0207 22.1703 18.0109 22.2844 17.9944C22.3936 17.9787 22.5419 17.9637 22.7719 17.9407L22.6226 16.4482C22.4062 16.4698 22.2197 16.4883 22.0708 16.5097C21.9267 16.5305 21.7573 16.5614 21.5952 16.6302L22.1806 18.0112ZM22.0464 18.3351C21.9953 18.2086 22.055 18.0644 22.1806 18.0112L21.5952 16.6302C20.7157 17.003 20.2977 18.0122 20.6559 18.8977L22.0464 18.3351ZM22.4145 18.8027C22.2682 18.6239 22.174 18.5085 22.1079 18.4203C22.0389 18.3281 22.0373 18.3126 22.0464 18.3351L20.6559 18.8977C20.722 19.0609 20.8198 19.2025 20.907 19.3191C20.9972 19.4395 21.1159 19.5844 21.2536 19.7526L22.4145 18.8027ZM22.7722 19.2981C22.68 19.121 22.5417 18.9582 22.4145 18.8027L21.2536 19.7526C21.3321 19.8486 21.3783 19.9052 21.4116 19.9491C21.4427 19.9901 21.4456 19.9982 21.4419 19.9911L22.7722 19.2981ZM22.6841 21.0655C23.0311 20.5357 23.0648 19.8598 22.7722 19.2981L21.4419 19.9911C21.4837 20.0713 21.4789 20.1679 21.4293 20.2436L22.6841 21.0655ZM22.2788 21.5228C22.4209 21.3808 22.5747 21.2325 22.6841 21.0655L21.4293 20.2436C21.4337 20.2369 21.43 20.2446 21.395 20.2823C21.3575 20.3227 21.3059 20.3744 21.2182 20.4621L22.2788 21.5228ZM21.5224 22.2792L22.2788 21.5228L21.2182 20.4621L20.4617 21.2186L21.5224 22.2792ZM21.0651 22.6845C21.2321 22.5751 21.3804 22.4212 21.5224 22.2792L20.4617 21.2186C20.374 21.3063 20.3223 21.3579 20.2819 21.3954C20.2442 21.4304 20.2365 21.4341 20.2432 21.4297L21.0651 22.6845ZM19.2977 22.7726C19.8594 23.0652 20.5353 23.0315 21.0651 22.6845L20.2432 21.4297C20.1675 21.4793 20.0709 21.4841 19.9907 21.4423L19.2977 22.7726ZM18.8023 22.4149C18.9578 22.5421 19.1206 22.6804 19.2977 22.7726L19.9907 21.4423C19.9978 21.446 19.9897 21.4431 19.9487 21.412C19.9048 21.3787 19.8482 21.3325 19.7522 21.254L18.8023 22.4149ZM18.7469 22.3648L18.7469 22.3648L19.8076 21.3041L19.8076 21.3041L18.7469 22.3648ZM18.3347 22.0468C18.3122 22.0377 18.3277 22.0393 18.4199 22.1083C18.5081 22.1744 18.6235 22.2686 18.8023 22.4149L19.7522 21.254C19.584 21.1163 19.4391 20.9976 19.3187 20.9074C19.2021 20.8202 19.0605 20.7224 18.8973 20.6563L18.3347 22.0468ZM18.0108 22.181C18.0641 22.0554 18.2082 21.9957 18.3347 22.0468L18.8973 20.6563C18.0118 20.2981 17.0026 20.7161 16.6298 21.5956L18.0108 22.181ZM17.9404 22.7722C17.9634 22.5422 17.9783 22.394 17.9941 22.2848C18.0105 22.1707 18.0203 22.1586 18.0108 22.181L16.6298 21.5956C16.561 21.7577 16.5301 21.9271 16.5093 22.0712C16.4879 22.2201 16.4694 22.4066 16.4478 22.623L17.9404 22.7722ZM17.9383 22.7906L17.9383 22.7906L16.4499 22.6046L16.4499 22.6046L17.9383 22.7906ZM17.8429 23.3761C17.903 23.1855 17.9203 22.9723 17.9404 22.7722L16.4478 22.623C16.4354 22.7466 16.428 22.8193 16.4205 22.874C16.4135 22.9251 16.4099 22.9328 16.4123 22.9252L17.8429 23.3761ZM16.5312 24.5631C17.151 24.4338 17.6526 23.9799 17.8429 23.3761L16.4123 22.9252C16.3851 23.0114 16.3134 23.0763 16.2249 23.0947L16.5312 24.5631ZM15.9208 24.6C16.1218 24.6 16.3356 24.604 16.5312 24.5631L16.2249 23.0948C16.2327 23.0931 16.2247 23.096 16.1732 23.0979C16.1181 23.0999 16.045 23.1 15.9208 23.1V24.6ZM14.8514 24.6H15.9208V23.1H14.8514V24.6ZM14.2411 24.5631C14.4367 24.604 14.6505 24.6 14.8514 24.6V23.1C14.7273 23.1 14.6542 23.0999 14.5991 23.0979C14.5476 23.096 14.5396 23.0931 14.5474 23.0948L14.2411 24.5631ZM12.9294 23.376C13.1197 23.9799 13.6213 24.4339 14.2411 24.5631L14.5474 23.0948C14.4588 23.0763 14.3872 23.0114 14.36 22.9252L12.9294 23.376ZM12.8319 22.7724C12.8519 22.9724 12.8693 23.1855 12.9294 23.376L14.36 22.9252C14.3624 22.9328 14.3587 22.9251 14.3517 22.874C14.3442 22.8194 14.3369 22.7467 14.3245 22.6231L12.8319 22.7724ZM12.7615 22.1811C12.752 22.1587 12.7618 22.1708 12.7782 22.2848C12.7939 22.394 12.8089 22.5423 12.8319 22.7724L14.3245 22.6231C14.3029 22.4067 14.2844 22.2202 14.2629 22.0712C14.2422 21.927 14.2112 21.7576 14.1424 21.5953L12.7615 22.1811ZM12.4376 22.0469C12.5641 21.9958 12.7082 22.0555 12.7615 22.1811L14.1424 21.5953C13.7695 20.7162 12.7607 20.2983 11.8753 20.6563L12.4376 22.0469ZM11.9697 22.4152C12.1486 22.2688 12.2641 22.1746 12.3524 22.1084C12.4446 22.0394 12.4602 22.0378 12.4376 22.0469L11.8753 20.6563C11.712 20.7224 11.5703 20.8203 11.4536 20.9075C11.3331 20.9977 11.1881 21.1166 11.0198 21.2543L11.9697 22.4152ZM11.9108 22.4588L11.9108 22.4588L11.0787 21.2107L11.0787 21.2107L11.9108 22.4588ZM11.4739 22.7732C11.6512 22.6809 11.8141 22.5425 11.9697 22.4152L11.0198 21.2543C10.9237 21.3329 10.8671 21.3791 10.8231 21.4125C10.7821 21.4436 10.7741 21.4465 10.7811 21.4428L11.4739 22.7732ZM9.70699 22.6851C10.2367 23.0319 10.9124 23.0656 11.4739 22.7732L10.7811 21.4428C10.7009 21.4845 10.6044 21.4797 10.5287 21.4302L9.70699 22.6851ZM9.24933 22.2796C9.39145 22.4217 9.53981 22.5756 9.70699 22.6851L10.5287 21.4302C10.5354 21.4345 10.5277 21.4309 10.4899 21.3958C10.4495 21.3583 10.3978 21.3067 10.31 21.2189L9.24933 22.2796ZM8.49318 21.5234L9.24933 22.2796L10.31 21.2189L9.55384 20.4627L8.49318 21.5234ZM8.47063 21.4999L8.47064 21.4999L9.57637 20.4863L9.57636 20.4863L8.47063 21.4999ZM8.08762 21.0657C8.19709 21.2329 8.35104 21.3813 8.49317 21.5234L9.55383 20.4627C9.46605 20.375 9.41443 20.3232 9.37688 20.2828C9.34182 20.2451 9.33816 20.2373 9.34253 20.244L8.08762 21.0657ZM7.9995 19.2988C7.70711 19.8604 7.74081 20.536 8.08762 21.0657L9.34253 20.244C9.29299 20.1683 9.28818 20.0718 9.32994 19.9916L7.9995 19.2988ZM8.35752 18.803C8.23022 18.9586 8.09179 19.1216 7.99949 19.2988L9.32995 19.9916C9.32626 19.9987 9.32913 19.9906 9.36027 19.9496C9.39361 19.9056 9.43983 19.849 9.51845 19.7529L8.35752 18.803ZM8.33799 18.8279L8.33798 18.8279L9.53798 19.7279L9.53799 19.7279L8.33799 18.8279ZM8.72584 18.335C8.73495 18.3125 8.73334 18.328 8.66432 18.4202C8.5982 18.5086 8.50393 18.6241 8.35752 18.803L9.51846 19.7529C9.65619 19.5845 9.77503 19.4395 9.86522 19.319C9.9525 19.2024 10.0504 19.0607 10.1164 18.8974L8.72584 18.335ZM8.59168 18.0112C8.71728 18.0644 8.77698 18.2086 8.72584 18.335L10.1164 18.8974C10.4745 18.012 10.0566 17.0031 9.17736 16.6302L8.59168 18.0112ZM8.00045 17.9407C8.23047 17.9637 8.37875 17.9787 8.48796 17.9944C8.60195 18.0108 8.61406 18.0207 8.59168 18.0112L9.17736 16.6302C9.01516 16.5614 8.84576 16.5305 8.70159 16.5097C8.55263 16.4883 8.3661 16.4698 8.14971 16.4482L8.00045 17.9407ZM8.07506 17.9444H8.07508V16.4444H8.07506V17.9444ZM7.94654 17.9333L7.94656 17.9333L8.20357 16.4555L8.20355 16.4555L7.94654 17.9333ZM7.39687 17.8433C7.58742 17.9034 7.80047 17.9207 8.00043 17.9407L8.14967 16.4482C8.02618 16.4358 7.95346 16.4284 7.89884 16.4209C7.84782 16.4139 7.8401 16.4103 7.84771 16.4127L7.39687 17.8433ZM6.20971 16.5315C6.33899 17.1513 6.79298 17.653 7.39687 17.8433L7.84771 16.4127C7.76144 16.3855 7.69658 16.3138 7.67812 16.2253L6.20971 16.5315ZM6.17285 15.9213C6.17285 16.1222 6.16892 16.3359 6.20971 16.5315L7.67812 16.2253C7.67975 16.2331 7.67687 16.225 7.67498 16.1736C7.67297 16.1185 7.67285 16.0454 7.67285 15.9213H6.17285ZM6.17285 14.8517V15.9213H7.67285V14.8517H6.17285ZM6.2097 14.2416C6.16892 14.4371 6.17285 14.6508 6.17285 14.8517H7.67285C7.67285 14.7277 7.67297 14.6546 7.67498 14.5995C7.67686 14.548 7.67974 14.54 7.67812 14.5478L6.2097 14.2416ZM7.39692 12.9297C6.79299 13.12 6.33896 13.6217 6.2097 14.2416L7.67812 14.5478C7.69658 14.4592 7.76144 14.3876 7.84772 14.3604L7.39692 12.9297ZM8.0004 12.8323C7.80047 12.8523 7.58745 12.8697 7.39692 12.9297L7.84772 14.3604C7.84011 14.3628 7.84783 14.3591 7.89884 14.3521C7.95346 14.3446 8.02618 14.3372 8.14965 14.3249L8.0004 12.8323ZM8.59154 12.7619C8.61392 12.7524 8.60181 12.7622 8.48783 12.7786C8.37864 12.7943 8.23038 12.8093 8.0004 12.8323L8.14965 14.3249C8.36601 14.3033 8.55251 14.2848 8.70145 14.2633C8.84559 14.2426 9.01498 14.2116 9.17715 14.1429L8.59154 12.7619ZM8.7257 12.438C8.77686 12.5645 8.71715 12.7086 8.59154 12.7619L9.17715 14.1429C10.0564 13.77 10.4744 12.761 10.1163 11.8756L8.7257 12.438ZM8.35728 11.9699C8.50372 12.1489 8.59801 12.2644 8.66416 12.3528C8.73321 12.445 8.73482 12.4606 8.7257 12.438L10.1163 11.8756C10.0502 11.7123 9.95232 11.5706 9.86504 11.4539C9.77484 11.3334 9.65599 11.1884 9.51822 11.02L8.35728 11.9699ZM7.99898 11.4737C8.09131 11.651 8.22986 11.8142 8.35728 11.9699L9.51822 11.02C9.43952 10.9239 9.39325 10.8671 9.35987 10.8231C9.32868 10.782 9.32581 10.774 9.32951 10.7811L7.99898 11.4737ZM8.08708 9.70718C7.74042 10.2367 7.70673 10.9122 7.99897 11.4737L9.32951 10.7811C9.28776 10.7009 9.29257 10.6044 9.3421 10.5287L8.08708 9.70718ZM8.49286 9.24918C8.35064 9.3914 8.1966 9.53987 8.08708 9.70718L9.3421 10.5287C9.33772 10.5354 9.34138 10.5277 9.37646 10.4899C9.41403 10.4495 9.46569 10.3977 9.55352 10.3098L8.49286 9.24918ZM9.24878 8.49326L8.49286 9.24918L9.55352 10.3098L10.3094 9.55392L9.24878 8.49326ZM9.70678 8.08748C9.53947 8.197 9.391 8.35104 9.24878 8.49326L10.3094 9.55392C10.3973 9.46608 10.4491 9.41443 10.4895 9.37686C10.5273 9.34178 10.535 9.33812 10.5283 9.34249L9.70678 8.08748ZM11.4733 7.99937C10.9118 7.70713 10.2363 7.74082 9.70678 8.08748L10.5283 9.34249C10.604 9.29297 10.7005 9.28816 10.7807 9.32991L11.4733 7.99937ZM11.9695 8.35765C11.8138 8.23025 11.6506 8.0917 11.4733 7.99937L10.7807 9.32991C10.7736 9.32621 10.7816 9.32908 10.8227 9.36026C10.8667 9.39364 10.9234 9.4399 11.0196 9.51859L11.9695 8.35765ZM11.9446 8.33813L11.9445 8.33812L11.0445 9.53812L11.0446 9.53813L11.9446 8.33813ZM12.4376 8.72611C12.4602 8.73523 12.4447 8.73362 12.3524 8.66456C12.264 8.59841 12.1485 8.50411 11.9695 8.35766L11.0196 9.51859C11.188 9.65638 11.3331 9.77525 11.4536 9.86545C11.5702 9.95275 11.7119 10.0507 11.8753 10.1167L12.4376 8.72611ZM12.7615 8.59196C12.7082 8.71755 12.5641 8.77725 12.4376 8.72611L11.8753 10.1167C12.7606 10.4747 13.7695 10.0568 14.1424 9.17765L12.7615 8.59196ZM12.8319 8.0007C12.8089 8.23073 12.7939 8.37902 12.7782 8.48823C12.7618 8.60223 12.752 8.61433 12.7615 8.59196L14.1424 9.17765C14.2112 9.01545 14.2422 8.84603 14.2629 8.70186C14.2844 8.55289 14.3029 8.36636 14.3245 8.14995L12.8319 8.0007ZM12.8282 8.07532V8.07533H14.3282V8.07532H12.8282ZM12.9294 7.3971C12.8693 7.58766 12.8519 7.80072 12.8319 8.00069L14.3245 8.14995C14.3369 8.02645 14.3442 7.95372 14.3517 7.89909C14.3587 7.84807 14.3624 7.84035 14.36 7.84795L12.9294 7.3971ZM14.2411 6.20996C13.6213 6.33923 13.1197 6.79322 12.9294 7.3971L14.36 7.84795C14.3872 7.76169 14.4588 7.69683 14.5474 7.67836L14.2411 6.20996ZM14.8514 6.1731C14.6505 6.1731 14.4367 6.16917 14.2411 6.20996L14.5474 7.67836C14.5396 7.67999 14.5476 7.67711 14.5991 7.67523C14.6542 7.67321 14.7273 7.6731 14.8514 7.6731V6.1731ZM15.9208 6.1731H14.8514V7.6731H15.9208V6.1731ZM16.5312 6.20997C16.3356 6.16916 16.1218 6.1731 15.9208 6.1731V7.6731C16.045 7.6731 16.1181 7.67321 16.1732 7.67523C16.2247 7.67711 16.2327 7.67999 16.2249 7.67836L16.5312 6.20997ZM17.8429 7.39705C17.6526 6.79321 17.151 6.33926 16.5312 6.20997L16.2249 7.67836C16.3134 7.69683 16.3851 7.76168 16.4123 7.84795L17.8429 7.39705ZM17.9403 8.00069C17.9203 7.80072 17.903 7.58763 17.8429 7.39705L16.4123 7.84795C16.4099 7.84034 16.4136 7.84805 16.4205 7.89908C16.428 7.95372 16.4354 8.02645 16.4478 8.14996L17.9403 8.00069ZM18.0228 15.3866C18.0228 16.8421 16.8429 18.022 15.3874 18.022V19.522C17.6713 19.522 19.5228 17.6705 19.5228 15.3866H18.0228ZM15.3874 12.7512C16.8429 12.7512 18.0228 13.9311 18.0228 15.3866H19.5228C19.5228 13.1027 17.6713 11.2512 15.3874 11.2512V12.7512ZM12.752 15.3866C12.752 13.9311 13.9319 12.7512 15.3874 12.7512V11.2512C13.1035 11.2512 11.252 13.1027 11.252 15.3866H12.752ZM15.3874 18.022C13.9319 18.022 12.752 16.8421 12.752 15.3866H11.252C11.252 17.6705 13.1035 19.522 15.3874 19.522V18.022Z" fill="#232323"/>
</svg>
